<svg width="762" height="762" viewBox="0 0 762 762" fill="none" xmlns="http://www.w3.org/2000/svg">
<rect x="15" y="15" width="732" height="732" rx="46" fill="#FF00B8" stroke="#CDEF0E" stroke-width="30"/>
<g filter="url(#filter0_d_221_38)">
<path d="M292.85 284.8C290.9 284.8 290.9 286.75 288.95 288.375C286.35 290.975 272.375 296.825 261.975 296.825C258.4 296.825 255.475 296.5 253.2 294.875C264.25 264.325 272.05 237.025 272.05 237.025C281.15 206.475 272.375 199.65 261.975 199.65C227.2 199.65 206.725 274.075 225.25 303.65C214.525 328.35 203.15 348.825 195.35 348.825C182.35 348.825 207.05 251.325 208.35 244.825C211.6 231.825 185.925 215.25 175.2 215.25C170.65 215.25 169.025 218.5 168.7 220.45C167.4 225.325 172.6 226.95 170 237.675C168.05 247.1 151.15 319.575 148.225 333.225C144.325 349.475 181.05 381 199.25 381C214.2 381 231.1 349.475 244.75 316C271.725 320.875 299.025 301.7 299.025 292.275C299.025 289.35 295.775 284.8 292.85 284.8ZM324.169 196.725H338.794C343.344 196.725 347.569 193.8 348.869 189.575L358.944 159.35C360.894 153.175 356.994 147.325 350.494 147.325H326.444C320.919 147.325 316.044 152.2 315.719 157.725L315.069 187.625C315.069 192.825 318.969 196.725 324.169 196.725ZM363.819 285.125C359.919 285.125 361.869 288.7 358.294 294.225C347.569 311.775 324.169 348.825 317.344 348.825C315.069 348.825 315.719 344.925 317.019 338.75C320.269 324.45 338.794 245.15 338.794 244.825C341.719 231.825 316.369 215.25 305.644 215.25C300.769 215.25 299.144 218.5 298.819 220.45C297.844 225.325 302.719 226.95 300.444 237.675L298.494 246.125C298.494 246.125 279.319 329 276.394 341.35C273.144 356.3 293.944 381 308.894 381C326.769 381 374.544 302.025 374.544 292.925C374.544 288.05 368.369 285.125 363.819 285.125ZM433.628 285.125C429.728 285.125 431.678 288.7 428.103 294.225C417.378 311.775 393.978 348.825 387.153 348.825C384.878 348.825 385.528 344.925 386.828 338.75C390.078 324.775 420.953 191.2 420.953 190.875C424.203 177.875 398.528 160.975 387.803 160.975C383.253 160.975 381.628 164.225 381.303 166.5C380.003 171.05 385.203 173 382.603 183.725C381.953 186.325 349.453 328.025 346.203 341.35C342.953 356.3 363.753 381 378.703 381C396.578 381 444.353 302.025 444.353 292.925C444.353 288.05 438.178 285.125 433.628 285.125ZM504.722 285.125C500.822 285.125 502.772 288.7 499.197 294.225C488.472 311.775 465.072 348.825 458.247 348.825C455.972 348.825 456.622 344.925 457.922 338.75C461.172 324.775 492.047 191.2 492.047 190.875C495.297 177.875 469.622 160.975 458.897 160.975C454.347 160.975 452.722 164.225 452.397 166.5C451.097 171.05 456.297 173 453.697 183.725C453.047 186.325 420.547 328.025 417.297 341.35C414.047 356.3 434.847 381 449.797 381C467.672 381 515.447 302.025 515.447 292.925C515.447 288.05 509.272 285.125 504.722 285.125ZM623.591 283.175C621.316 283.175 622.291 286.1 618.391 290.65C604.091 307.875 573.541 348.825 545.591 348.825C527.391 348.825 527.391 328.025 534.541 304.3C542.016 306.575 552.416 307.55 556.316 307.55C574.841 307.55 606.366 258.8 606.366 240.925C606.366 228.575 571.916 211.35 554.041 211.35C527.391 211.35 498.466 290.65 490.991 323.8C487.091 341.025 516.016 381 535.516 381C568.016 381 632.366 303.975 632.366 291.625C632.366 287.075 627.166 283.175 623.591 283.175ZM575.816 235.725C588.816 235.725 561.516 293.25 544.291 293.25C528.691 293.25 567.366 235.725 575.816 235.725Z" fill="white"/>
<path d="M288.95 288.375L269.745 265.328L268.699 266.2L267.737 267.162L288.95 288.375ZM253.2 294.875L224.989 284.671L217.251 306.064L235.763 319.287L253.2 294.875ZM272.05 237.025L243.298 228.461L243.25 228.622L243.204 228.783L272.05 237.025ZM225.25 303.65L252.768 315.599L259.059 301.111L250.674 287.725L225.25 303.65ZM208.35 244.825L179.246 237.549L179.073 238.241L178.933 238.942L208.35 244.825ZM168.7 220.45L197.687 228.18L198.056 226.795L198.292 225.382L168.7 220.45ZM170 237.675L140.844 230.607L140.725 231.1L140.622 231.597L170 237.675ZM148.225 333.225L177.397 340.226L177.482 339.87L177.559 339.511L148.225 333.225ZM244.75 316L250.085 286.478L226.153 282.153L216.971 304.673L244.75 316ZM292.85 254.8C286.806 254.8 280.442 256.482 274.766 260.361C269.911 263.679 267.165 267.58 266.391 268.678C263.882 272.232 266.743 267.83 269.745 265.328L308.156 311.422C310.979 309.069 312.938 306.711 314.215 304.988C314.809 304.185 315.27 303.497 315.463 303.208C315.784 302.728 315.573 303.046 315.409 303.279C315.122 303.685 312.864 306.998 308.618 309.899C306.328 311.464 303.681 312.774 300.735 313.648C297.832 314.509 295.137 314.8 292.85 314.8V254.8ZM267.737 267.162C268.872 266.027 269.835 265.271 270.34 264.893C270.894 264.478 271.313 264.207 271.522 264.075C271.922 263.824 272.032 263.786 271.744 263.93C271.179 264.211 270.04 264.713 268.497 265.252C266.978 265.783 265.432 266.221 264.063 266.507C262.611 266.811 261.929 266.825 261.975 266.825V326.825C271.924 326.825 281.618 324.224 288.278 321.898C291.854 320.649 295.346 319.202 298.458 317.655C300.483 316.647 305.763 313.988 310.163 309.588L267.737 267.162ZM261.975 266.825C260.853 266.825 261.476 266.748 262.826 267.011C264.431 267.323 267.434 268.175 270.637 270.463L235.763 319.287C246.41 326.892 258.008 326.825 261.975 326.825V266.825ZM281.411 305.079C287.128 289.273 291.982 274.374 295.399 263.454C297.112 257.982 298.473 253.48 299.412 250.327C299.881 248.749 300.246 247.508 300.496 246.649C300.621 246.22 300.718 245.886 300.785 245.653C300.818 245.537 300.844 245.446 300.863 245.382C300.872 245.349 300.879 245.324 300.885 245.304C300.888 245.295 300.89 245.287 300.892 245.281C300.893 245.277 300.893 245.275 300.894 245.272C300.894 245.271 300.895 245.27 300.895 245.269C300.895 245.268 300.896 245.267 272.05 237.025C243.204 228.783 243.205 228.782 243.205 228.781C243.205 228.781 243.205 228.78 243.205 228.78C243.205 228.78 243.205 228.779 243.205 228.779C243.205 228.78 243.205 228.782 243.204 228.785C243.202 228.793 243.198 228.806 243.192 228.827C243.18 228.867 243.161 228.933 243.135 229.025C243.082 229.207 243 229.49 242.891 229.866C242.671 230.62 242.34 231.75 241.905 233.209C241.036 236.129 239.757 240.361 238.138 245.533C234.893 255.901 230.322 269.927 224.989 284.671L281.411 305.079ZM300.802 245.589C305.711 229.107 308.646 210.883 301.92 195.113C298.068 186.08 291.49 178.973 283.085 174.592C275.298 170.532 267.59 169.65 261.975 169.65V229.65C261.56 229.65 258.849 229.621 255.348 227.796C251.229 225.648 248.226 222.157 246.73 218.65C245.508 215.786 245.952 214.482 245.831 216.51C245.716 218.437 245.157 222.222 243.298 228.461L300.802 245.589ZM261.975 169.65C241.725 169.65 226.364 180.599 216.4 191.967C206.424 203.35 199.486 217.585 195.057 231.401C190.572 245.393 188.099 260.688 188.285 275.306C188.466 289.436 191.18 305.772 199.826 319.575L250.674 287.725C250.058 286.741 248.384 282.683 248.28 274.54C248.183 266.886 249.528 258.029 252.193 249.718C254.914 241.23 258.458 235.011 261.522 231.515C264.599 228.004 264.837 229.65 261.975 229.65V169.65ZM197.732 291.701C192.575 303.578 187.759 313.244 183.806 319.532C181.764 322.78 180.69 323.928 180.708 323.911C180.752 323.867 181.739 322.87 183.699 321.765C185.662 320.659 189.715 318.825 195.35 318.825V378.825C209.724 378.825 219.31 370.121 222.901 366.569C227.581 361.94 231.483 356.426 234.601 351.468C240.966 341.343 247.2 328.422 252.768 315.599L197.732 291.701ZM195.35 318.825C205.698 318.825 213.359 324.382 217.402 329.812C220.598 334.105 221.365 337.902 221.474 338.419C221.753 339.739 221.449 339.136 221.669 335.135C222.064 327.936 223.665 317.132 225.976 304.78C228.228 292.74 230.934 280.374 233.19 270.494C235.227 261.57 237.35 252.795 237.767 250.708L178.933 238.942C178.961 238.8 178.904 239.077 178.627 240.268C178.39 241.287 178.077 242.612 177.684 244.282C176.907 247.583 175.866 252.008 174.695 257.14C172.36 267.369 169.459 280.597 166.999 293.745C164.598 306.581 162.379 320.558 161.759 331.843C161.471 337.085 161.36 344.149 162.771 350.827C163.447 354.022 165.015 359.921 169.277 365.645C174.386 372.506 183.377 378.825 195.35 378.825V318.825ZM237.454 252.101C241.015 237.857 235.88 225.832 231.477 218.799C226.925 211.53 220.896 205.767 215.533 201.559C210.003 197.221 203.846 193.492 197.778 190.733C192.45 188.311 184.211 185.25 175.2 185.25V245.25C173.984 245.25 173.098 245.137 172.623 245.06C172.129 244.981 171.849 244.905 171.804 244.892C171.747 244.876 172.14 244.987 172.945 245.353C174.606 246.108 176.675 247.335 178.498 248.766C179.371 249.45 180.01 250.043 180.425 250.478C180.863 250.936 180.856 251.013 180.623 250.64C180.41 250.3 179.665 249.041 179.145 246.898C178.593 244.623 178.302 241.325 179.246 237.549L237.454 252.101ZM175.2 185.25C164.963 185.25 155.549 189.245 148.741 196.326C142.694 202.614 140.047 209.885 139.108 215.518L198.292 225.382C197.678 229.065 196.006 233.736 191.991 237.912C187.214 242.88 180.887 245.25 175.2 245.25V185.25ZM139.713 212.72C138.83 216.03 138.416 219.431 138.498 222.866C138.578 226.245 139.127 229.113 139.704 231.31C140.243 233.362 140.872 235.044 141.133 235.741C141.207 235.938 141.278 236.126 141.326 236.253C141.381 236.398 141.413 236.483 141.443 236.563C141.501 236.715 141.5 236.716 141.476 236.648C141.289 236.104 140.867 234.682 140.762 232.896C140.665 231.242 140.904 230.362 140.844 230.607L199.156 244.743C200.396 239.626 200.96 234.521 200.66 229.393C200.352 224.134 199.199 219.989 198.199 217.089C197.972 216.432 197.763 215.867 197.614 215.47C197.541 215.276 197.47 215.09 197.424 214.968C197.371 214.827 197.342 214.752 197.318 214.688C197.188 214.342 197.462 215.023 197.736 216.069C198.049 217.262 198.425 219.118 198.481 221.434C198.537 223.805 198.245 226.089 197.687 228.18L139.713 212.72ZM140.622 231.597C138.438 242.152 122.371 310.699 118.891 326.939L177.559 339.511C179.929 328.451 197.662 252.048 199.378 243.753L140.622 231.597ZM119.053 326.224C115.242 342.104 121.974 355.901 126.343 363.104C131.458 371.536 138.398 379.194 145.336 385.464C152.371 391.822 160.486 397.729 168.793 402.216C176.323 406.283 187.3 411 199.25 411V351C201.084 351 201.771 351.352 200.98 351.094C200.317 350.878 199.074 350.379 197.309 349.425C193.732 347.493 189.497 344.503 185.564 340.948C181.533 337.306 178.886 334.036 177.643 331.986C177.039 330.991 177.204 330.997 177.472 331.969C177.733 332.914 178.415 335.984 177.397 340.226L119.053 326.224ZM199.25 411C213.611 411 224.369 403.6 230.716 397.94C237.438 391.944 243.065 384.481 247.681 377.34C256.996 362.932 265.462 344.658 272.529 327.327L216.971 304.673C210.388 320.817 203.579 335.043 197.294 344.766C194.11 349.691 191.855 352.202 190.778 353.163C189.325 354.459 192.364 351 199.25 351V411ZM239.415 345.522C261.165 349.453 281.559 343.629 295.967 336.052C303.284 332.204 310.218 327.311 315.782 321.623C318.561 318.783 321.516 315.217 323.929 310.939C326.206 306.902 329.025 300.413 329.025 292.275H269.025C269.025 286.493 270.991 282.665 271.67 281.461C272.484 280.017 273.096 279.457 272.894 279.664C272.496 280.07 270.919 281.433 268.039 282.948C262.053 286.096 255.31 287.422 250.085 286.478L239.415 345.522ZM329.025 292.275C329.025 281.658 324.148 273.403 320.646 268.934C317.817 265.325 308.529 254.8 292.85 254.8V314.8C285.877 314.8 280.924 312.178 278.531 310.6C275.986 308.921 274.37 307.156 273.423 305.947C272.43 304.681 271.53 303.207 270.794 301.447C270.15 299.908 269.025 296.71 269.025 292.275H329.025ZM348.869 189.575L320.409 180.088L320.299 180.419L320.196 180.752L348.869 189.575ZM358.944 159.35L387.405 168.837L387.48 168.611L387.552 168.384L358.944 159.35ZM315.719 157.725L285.771 155.963L285.738 156.518L285.726 157.073L315.719 157.725ZM315.069 187.625L285.076 186.973L285.069 187.299V187.625H315.069ZM358.294 294.225L333.107 277.927L332.897 278.252L332.696 278.581L358.294 294.225ZM317.019 338.75L287.765 332.101L287.712 332.335L287.663 332.57L317.019 338.75ZM338.794 244.825L309.526 238.24L308.794 241.492V244.825H338.794ZM298.819 220.45L328.237 226.333L328.332 225.859L328.411 225.382L298.819 220.45ZM300.444 237.675L329.676 244.421L329.736 244.161L329.791 243.9L300.444 237.675ZM298.494 246.125L327.722 252.888L327.724 252.879L327.726 252.871L298.494 246.125ZM276.394 341.35L247.202 334.436L247.138 334.706L247.079 334.977L276.394 341.35ZM324.169 226.725H338.794V166.725H324.169V226.725ZM338.794 226.725C355.385 226.725 372.047 216.258 377.543 198.398L320.196 180.752C323.091 171.342 331.304 166.725 338.794 166.725V226.725ZM377.33 199.062L387.405 168.837L330.484 149.863L320.409 180.088L377.33 199.062ZM387.552 168.384C391.127 157.064 389.73 144.332 382.57 133.969C375.258 123.386 363.302 117.325 350.494 117.325V177.325C344.187 177.325 337.431 174.189 333.206 168.075C329.134 162.181 328.712 155.461 330.337 150.316L387.552 168.384ZM350.494 117.325H326.444V177.325H350.494V117.325ZM326.444 117.325C304.009 117.325 286.967 135.626 285.771 155.963L345.668 159.487C345.348 164.922 342.933 169.135 340.121 171.888C337.286 174.664 332.61 177.325 326.444 177.325V117.325ZM285.726 157.073L285.076 186.973L345.062 188.277L345.712 158.377L285.726 157.073ZM285.069 187.625C285.069 209.394 302.401 226.725 324.169 226.725V166.725C329.272 166.725 334.704 168.734 338.883 172.912C343.061 177.09 345.069 182.522 345.069 187.625H285.069ZM363.819 255.125C358.279 255.125 348.662 256.495 340.6 264.557C334.112 271.045 332.274 278.707 332.061 279.459C331.065 282.992 331.84 279.885 333.107 277.927L383.481 310.523C388.323 303.04 389.911 295.383 389.808 295.747C389.79 295.813 389.422 297.173 388.623 298.936C387.766 300.826 386.093 303.917 383.027 306.983C379.773 310.237 375.942 312.473 372.062 313.761C368.485 314.949 365.498 315.125 363.819 315.125V255.125ZM332.696 278.581C327.415 287.223 319.284 300.215 311.804 310.867C307.994 316.294 304.857 320.387 302.661 322.865C301.499 324.176 301.293 324.243 301.924 323.74C302.248 323.481 303.426 322.56 305.348 321.595C307.024 320.754 311.314 318.825 317.344 318.825V378.825C324.227 378.825 329.501 376.607 332.274 375.214C335.294 373.698 337.685 371.963 339.323 370.658C342.582 368.06 345.407 365.095 347.566 362.659C352.013 357.641 356.676 351.374 360.909 345.345C369.517 333.085 378.449 318.777 383.893 309.868L332.696 278.581ZM317.344 318.825C321.426 318.825 326.766 319.738 332.083 322.935C337.436 326.154 340.828 330.522 342.806 334.352C346.138 340.804 345.842 346.413 345.833 346.801C345.796 348.393 345.557 348.818 346.376 344.93L287.663 332.57C287.181 334.857 285.968 340.32 285.849 345.406C285.8 347.54 285.687 354.51 289.496 361.886C291.713 366.178 295.417 370.899 301.165 374.356C306.877 377.79 312.694 378.825 317.344 378.825V318.825ZM346.273 345.399C347.876 338.346 353.293 315.061 358.345 293.345C360.863 282.522 363.283 272.122 365.073 264.408C365.967 260.553 366.708 257.353 367.227 255.099C367.485 253.978 367.695 253.062 367.843 252.407C367.915 252.09 367.985 251.779 368.042 251.519C368.068 251.405 368.112 251.201 368.159 250.976C368.178 250.884 368.23 250.631 368.288 250.315C368.314 250.175 368.378 249.827 368.446 249.383C368.481 249.151 368.559 248.576 368.601 248.229C368.66 247.657 368.773 245.956 368.794 244.825H308.794C308.816 243.696 308.928 241.996 308.988 241.426C309.029 241.082 309.107 240.51 309.141 240.282C309.208 239.845 309.27 239.507 309.294 239.379C309.348 239.087 309.393 238.868 309.403 238.819C309.432 238.68 309.45 238.6 309.44 238.646C309.427 238.706 309.392 238.861 309.328 239.145C309.203 239.695 309.012 240.53 308.757 241.636C308.25 243.837 307.519 246.997 306.625 250.846C304.84 258.539 302.425 268.919 299.906 279.749C294.883 301.339 289.413 324.854 287.765 332.101L346.273 345.399ZM368.063 251.41C371.221 237.373 366.084 225.618 361.732 218.717C357.21 211.545 351.259 205.822 345.919 201.609C340.426 197.276 334.302 193.536 328.245 190.764C322.919 188.327 314.683 185.25 305.644 185.25V245.25C304.427 245.25 303.535 245.136 303.05 245.058C302.546 244.977 302.255 244.898 302.199 244.882C302.119 244.86 302.49 244.962 303.275 245.322C304.896 246.064 306.938 247.281 308.757 248.716C309.627 249.402 310.275 250.004 310.705 250.455C311.157 250.929 311.182 251.04 310.981 250.722C310.802 250.437 310.101 249.272 309.585 247.256C309.041 245.127 308.691 241.952 309.526 238.24L368.063 251.41ZM305.644 185.25C295.879 185.25 286.424 188.794 279.312 195.906C272.908 202.31 270.179 209.808 269.228 215.518L328.411 225.382C327.785 229.142 326.031 234.04 321.739 238.332C316.74 243.331 310.535 245.25 305.644 245.25V185.25ZM269.402 214.567C268.016 221.495 268.863 227.432 270.114 231.854C270.637 233.704 271.223 235.244 271.457 235.86C271.665 236.408 271.623 236.291 271.736 236.591C271.785 236.722 271.782 236.719 271.758 236.648C271.573 236.112 271.198 234.826 271.087 233.245C270.985 231.795 271.175 231.083 271.097 231.45L329.791 243.9C330.851 238.904 331.285 233.968 330.939 229.044C330.585 223.989 329.478 219.981 328.481 217.089C328.08 215.927 327.602 214.698 327.552 214.569C327.39 214.142 327.611 214.681 327.849 215.525C328.532 217.937 329.135 221.842 328.237 226.333L269.402 214.567ZM271.213 230.929L269.263 239.379L327.726 252.871L329.676 244.421L271.213 230.929ZM298.494 246.125C269.266 239.362 269.266 239.363 269.266 239.363C269.266 239.364 269.266 239.365 269.266 239.366C269.265 239.369 269.264 239.372 269.263 239.377C269.261 239.387 269.257 239.402 269.253 239.422C269.243 239.462 269.23 239.522 269.211 239.6C269.175 239.757 269.121 239.991 269.051 240.295C268.909 240.905 268.702 241.801 268.437 242.946C267.907 245.236 267.147 248.521 266.226 252.501C264.382 260.462 261.895 271.205 259.316 282.333C254.145 304.647 248.643 328.352 247.202 334.436L305.587 348.264C307.071 341.998 312.619 318.091 317.767 295.879C320.347 284.745 322.836 273.997 324.68 266.033C325.601 262.051 326.362 258.765 326.892 256.474C327.157 255.329 327.365 254.432 327.506 253.822C327.577 253.517 327.631 253.283 327.667 253.126C327.685 253.047 327.699 252.988 327.708 252.948C327.713 252.928 327.716 252.913 327.719 252.903C327.72 252.898 327.721 252.894 327.721 252.891C327.722 252.89 327.722 252.889 327.722 252.888C327.722 252.888 327.722 252.888 298.494 246.125ZM247.079 334.977C244.56 346.567 247.113 357.238 250.057 364.772C253.143 372.669 257.716 379.882 262.715 385.918C267.721 391.961 273.906 397.732 280.933 402.209C287.588 406.448 297.332 411 308.894 411V351C311.109 351 312.561 351.444 313.071 351.625C313.601 351.812 313.62 351.891 313.171 351.605C312.745 351.334 312.097 350.86 311.303 350.142C310.517 349.432 309.703 348.586 308.923 347.645C308.144 346.703 307.476 345.761 306.946 344.888C306.409 344.004 306.097 343.331 305.941 342.932C305.776 342.509 305.88 342.636 305.97 343.297C306.059 343.951 306.186 345.531 305.71 347.723L247.079 334.977ZM308.894 411C320.937 411 330.142 404.99 334.403 401.916C339.673 398.112 344.528 393.409 348.698 388.909C357.14 379.798 365.748 368.264 373.242 357.227C380.827 346.056 387.862 334.519 393.109 324.942C395.712 320.193 398.08 315.552 399.89 311.464C400.783 309.446 401.728 307.143 402.505 304.778C403.014 303.226 404.544 298.555 404.544 292.925H344.544C344.544 290.237 344.946 288.273 345.098 287.576C345.287 286.709 345.465 286.163 345.502 286.05C345.571 285.841 345.472 286.168 345.024 287.18C344.15 289.153 342.647 292.175 340.491 296.11C336.222 303.9 330.196 313.813 323.603 323.523C316.919 333.367 310.231 342.146 304.688 348.127C301.866 351.173 300.055 352.711 299.292 353.262C297.518 354.542 301.32 351 308.894 351V411ZM404.544 292.925C404.544 276.351 393.881 266.257 386.963 261.867C379.946 257.414 371.67 255.125 363.819 255.125V315.125C360.518 315.125 357.605 314.298 354.813 312.527C352.12 310.818 344.544 304.624 344.544 292.925H404.544ZM428.103 294.225L402.916 277.927L402.706 278.252L402.505 278.581L428.103 294.225ZM386.828 338.75L357.608 331.955L357.537 332.261L357.472 332.57L386.828 338.75ZM420.953 190.875L391.849 183.599L390.953 187.182V190.875H420.953ZM381.303 166.5L410.149 174.742L410.712 172.771L411.002 170.743L381.303 166.5ZM382.603 183.725L411.708 191.001L411.734 190.897L411.759 190.793L382.603 183.725ZM346.203 341.35L317.058 334.241L316.968 334.608L316.888 334.977L346.203 341.35ZM433.628 255.125C428.088 255.125 418.471 256.495 410.409 264.557C403.921 271.045 402.083 278.707 401.87 279.459C400.874 282.992 401.649 279.885 402.916 277.927L453.29 310.523C458.132 303.04 459.72 295.383 459.617 295.747C459.599 295.813 459.231 297.173 458.432 298.936C457.575 300.826 455.902 303.917 452.836 306.983C449.582 310.237 445.751 312.473 441.871 313.761C438.294 314.949 435.307 315.125 433.628 315.125V255.125ZM402.505 278.581C397.224 287.223 389.093 300.215 381.613 310.867C377.803 316.294 374.666 320.387 372.47 322.865C371.308 324.176 371.102 324.243 371.733 323.74C372.057 323.481 373.235 322.56 375.157 321.595C376.833 320.754 381.123 318.825 387.153 318.825V378.825C394.036 378.825 399.31 376.607 402.083 375.214C405.103 373.698 407.494 371.963 409.132 370.658C412.391 368.06 415.216 365.095 417.375 362.659C421.822 357.641 426.485 351.374 430.718 345.345C439.326 333.085 448.258 318.777 453.702 309.868L402.505 278.581ZM387.153 318.825C391.235 318.825 396.575 319.738 401.892 322.935C407.245 326.154 410.637 330.522 412.615 334.352C415.947 340.804 415.651 346.413 415.642 346.801C415.605 348.393 415.366 348.818 416.185 344.93L357.472 332.57C356.99 334.857 355.777 340.32 355.658 345.406C355.609 347.54 355.496 354.51 359.305 361.886C361.522 366.178 365.226 370.899 370.974 374.356C376.686 377.79 382.503 378.825 387.153 378.825V318.825ZM416.049 345.545C417.68 338.53 426.217 301.616 434.34 266.444C438.403 248.852 442.366 231.681 445.313 218.886C446.786 212.49 448.008 207.179 448.862 203.452C449.288 201.592 449.627 200.108 449.861 199.077C449.977 198.568 450.075 198.135 450.147 197.811C450.181 197.66 450.223 197.469 450.262 197.284C450.279 197.209 450.319 197.022 450.364 196.797C450.382 196.705 450.436 196.437 450.496 196.097C450.528 195.909 450.608 195.417 450.653 195.112C450.73 194.532 450.914 192.415 450.953 190.875H390.953C390.993 189.336 391.177 187.222 391.253 186.645C391.298 186.343 391.376 185.856 391.408 185.673C391.466 185.343 391.517 185.09 391.532 185.017C391.569 184.83 391.598 184.696 391.599 184.689C391.609 184.643 391.607 184.654 391.582 184.765C391.537 184.967 391.461 185.304 391.35 185.794C391.13 186.762 390.803 188.196 390.379 190.046C389.532 193.741 388.316 199.028 386.844 205.418C383.9 218.197 379.941 235.354 375.879 252.943C367.752 288.133 359.227 324.995 357.608 331.955L416.049 345.545ZM450.058 198.151C453.614 183.925 448.489 171.903 444.144 164.901C439.632 157.629 433.646 151.829 428.296 147.573C422.786 143.189 416.636 139.401 410.559 136.59C405.244 134.132 396.933 130.975 387.803 130.975V190.975C386.55 190.975 385.633 190.856 385.138 190.775C384.622 190.691 384.325 190.608 384.269 190.592C384.19 190.57 384.569 190.676 385.37 191.047C387.022 191.811 389.099 193.061 390.941 194.527C391.823 195.228 392.476 195.84 392.907 196.297C393.36 196.777 393.375 196.879 393.162 196.537C392.971 196.229 392.248 195.003 391.74 192.899C391.201 190.667 390.903 187.384 391.849 183.599L450.058 198.151ZM387.803 130.975C377.549 130.975 367.901 135.002 360.956 142.502C354.793 149.158 352.394 156.736 351.605 162.257L411.002 170.743C410.538 173.989 409.114 178.804 404.982 183.267C400.068 188.573 393.508 190.975 387.803 190.975V130.975ZM352.458 158.258C351.459 161.752 351.014 165.311 351.102 168.854C351.188 172.309 351.769 175.205 352.337 177.333C352.865 179.316 353.48 180.96 353.715 181.592C353.981 182.305 353.834 181.904 354.002 182.359C354.054 182.497 354.052 182.497 354.029 182.428C353.852 181.906 353.461 180.561 353.364 178.875C353.273 177.299 353.497 176.453 353.448 176.657L411.759 190.793C413.009 185.634 413.559 180.523 413.265 175.423C412.964 170.212 411.842 166.085 410.853 163.166C410.46 162.007 409.972 160.732 409.942 160.651C409.787 160.233 410.046 160.88 410.311 161.873C410.614 163.01 411.023 164.923 411.083 167.36C411.146 169.882 410.822 172.385 410.149 174.742L352.458 158.258ZM353.499 176.449C353.106 178.021 319.756 323.178 317.058 334.241L375.349 348.459C377.035 341.547 386.043 302.48 394.614 265.245C398.92 246.539 403.147 228.154 406.335 214.305C407.929 207.376 409.263 201.582 410.218 197.441C411.238 193.022 411.714 190.975 411.708 191.001L353.499 176.449ZM316.888 334.977C314.369 346.567 316.922 357.238 319.866 364.772C322.952 372.669 327.525 379.882 332.524 385.918C337.53 391.961 343.715 397.732 350.742 402.209C357.397 406.448 367.141 411 378.703 411V351C380.918 351 382.37 351.444 382.88 351.625C383.41 351.812 383.429 351.891 382.98 351.605C382.554 351.334 381.906 350.86 381.112 350.142C380.326 349.432 379.512 348.586 378.732 347.645C377.953 346.703 377.285 345.761 376.755 344.888C376.218 344.004 375.906 343.331 375.75 342.932C375.585 342.509 375.689 342.636 375.779 343.297C375.868 343.951 375.995 345.531 375.519 347.723L316.888 334.977ZM378.703 411C390.746 411 399.951 404.99 404.212 401.916C409.482 398.112 414.337 393.409 418.507 388.909C426.949 379.798 435.557 368.264 443.051 357.227C450.636 346.056 457.671 334.519 462.918 324.942C465.521 320.193 467.889 315.552 469.699 311.464C470.592 309.446 471.537 307.143 472.314 304.778C472.823 303.226 474.353 298.555 474.353 292.925H414.353C414.353 290.237 414.755 288.273 414.907 287.576C415.096 286.709 415.274 286.163 415.311 286.05C415.38 285.841 415.281 286.168 414.833 287.18C413.959 289.153 412.456 292.175 410.3 296.11C406.031 303.9 400.005 313.813 393.412 323.523C386.728 333.367 380.04 342.146 374.497 348.127C371.675 351.173 369.864 352.711 369.101 353.262C367.327 354.542 371.129 351 378.703 351V411ZM474.353 292.925C474.353 276.351 463.69 266.257 456.772 261.867C449.755 257.414 441.479 255.125 433.628 255.125V315.125C430.327 315.125 427.414 314.298 424.622 312.527C421.929 310.818 414.353 304.624 414.353 292.925H474.353ZM499.197 294.225L474.01 277.927L473.8 278.252L473.599 278.581L499.197 294.225ZM457.922 338.75L428.702 331.955L428.63 332.261L428.566 332.57L457.922 338.75ZM492.047 190.875L462.943 183.599L462.047 187.182V190.875H492.047ZM452.397 166.5L481.243 174.742L481.806 172.771L482.096 170.743L452.397 166.5ZM453.697 183.725L482.801 191.001L482.827 190.897L482.853 190.793L453.697 183.725ZM417.297 341.35L388.151 334.241L388.062 334.608L387.982 334.977L417.297 341.35ZM504.722 255.125C499.182 255.125 489.564 256.495 481.503 264.557C475.015 271.045 473.176 278.707 472.964 279.459C471.968 282.992 472.743 279.885 474.01 277.927L524.384 310.523C529.226 303.04 530.814 295.383 530.711 295.747C530.693 295.813 530.325 297.173 529.525 298.936C528.668 300.826 526.996 303.917 523.929 306.983C520.675 310.237 516.845 312.473 512.965 313.761C509.387 314.949 506.401 315.125 504.722 315.125V255.125ZM473.599 278.581C468.318 287.223 460.187 300.215 452.707 310.867C448.897 316.294 445.76 320.387 443.564 322.865C442.402 324.176 442.196 324.243 442.827 323.74C443.151 323.481 444.329 322.56 446.251 321.595C447.927 320.754 452.217 318.825 458.247 318.825V378.825C465.13 378.825 470.403 376.607 473.177 375.214C476.197 373.698 478.588 371.963 480.226 370.658C483.485 368.06 486.31 365.095 488.469 362.659C492.916 357.641 497.579 351.374 501.812 345.345C510.42 333.085 519.351 318.777 524.796 309.868L473.599 278.581ZM458.247 318.825C462.329 318.825 467.668 319.738 472.986 322.935C478.339 326.154 481.73 330.522 483.708 334.352C487.041 340.804 486.745 346.413 486.736 346.801C486.699 348.393 486.46 348.818 487.279 344.93L428.566 332.57C428.084 334.857 426.87 340.32 426.752 345.406C426.702 347.54 426.589 354.51 430.399 361.886C432.616 366.178 436.319 370.899 442.067 374.356C447.78 377.79 453.597 378.825 458.247 378.825V318.825ZM487.142 345.545C488.774 338.53 497.311 301.616 505.434 266.444C509.497 248.852 513.459 231.681 516.407 218.886C517.88 212.49 519.101 207.179 519.956 203.452C520.382 201.592 520.721 200.108 520.955 199.077C521.071 198.568 521.169 198.135 521.241 197.811C521.274 197.66 521.317 197.469 521.356 197.284C521.372 197.209 521.413 197.022 521.458 196.797C521.476 196.705 521.529 196.437 521.589 196.097C521.622 195.909 521.701 195.417 521.747 195.112C521.823 194.532 522.008 192.415 522.047 190.875H462.047C462.087 189.336 462.27 187.222 462.347 186.645C462.392 186.343 462.47 185.856 462.502 185.673C462.56 185.343 462.611 185.09 462.625 185.017C462.663 184.83 462.692 184.696 462.693 184.689C462.703 184.643 462.701 184.654 462.676 184.765C462.631 184.967 462.555 185.304 462.444 185.794C462.224 186.762 461.897 188.196 461.472 190.046C460.626 193.741 459.41 199.028 457.938 205.418C454.994 218.197 451.035 235.354 446.973 252.943C438.846 288.133 430.32 324.995 428.702 331.955L487.142 345.545ZM521.151 198.151C524.708 183.925 519.583 171.903 515.238 164.901C510.726 157.629 504.74 151.829 499.39 147.573C493.88 143.189 487.73 139.401 481.653 136.59C476.338 134.132 468.026 130.975 458.897 130.975V190.975C457.644 190.975 456.727 190.856 456.231 190.775C455.716 190.691 455.419 190.608 455.363 190.592C455.284 190.57 455.663 190.676 456.464 191.047C458.116 191.811 460.193 193.061 462.035 194.527C462.917 195.228 463.57 195.84 464.001 196.297C464.454 196.777 464.468 196.879 464.256 196.537C464.065 196.229 463.342 195.003 462.834 192.899C462.295 190.667 461.997 187.384 462.943 183.599L521.151 198.151ZM458.897 130.975C448.643 130.975 438.995 135.002 432.05 142.502C425.887 149.158 423.487 156.736 422.699 162.257L482.096 170.743C481.632 173.989 480.207 178.804 476.076 183.267C471.162 188.573 464.601 190.975 458.897 190.975V130.975ZM423.551 158.258C422.553 161.752 422.107 165.311 422.196 168.854C422.282 172.309 422.863 175.205 423.43 177.333C423.959 179.316 424.574 180.96 424.809 181.592C425.074 182.305 424.928 181.904 425.096 182.359C425.148 182.497 425.146 182.497 425.123 182.428C424.946 181.906 424.555 180.561 424.458 178.875C424.367 177.299 424.591 176.453 424.542 176.657L482.853 190.793C484.103 185.634 484.652 180.523 484.358 175.423C484.058 170.212 482.936 166.085 481.947 163.166C481.554 162.007 481.066 160.732 481.036 160.651C480.88 160.233 481.14 160.88 481.404 161.873C481.708 163.01 482.116 164.923 482.177 167.36C482.24 169.882 481.916 172.385 481.243 174.742L423.551 158.258ZM424.593 176.449C424.2 178.021 390.85 323.178 388.151 334.241L446.443 348.459C448.129 341.547 457.137 302.48 465.708 265.245C470.013 246.539 474.241 228.154 477.428 214.305C479.023 207.376 480.357 201.582 481.312 197.441C482.331 193.022 482.808 190.975 482.801 191.001L424.593 176.449ZM387.982 334.977C385.462 346.567 388.015 357.238 390.96 364.772C394.046 372.669 398.619 379.882 403.618 385.918C408.623 391.961 414.808 397.732 421.836 402.209C428.491 406.448 438.235 411 449.797 411V351C452.012 351 453.463 351.444 453.974 351.625C454.504 351.812 454.523 351.891 454.074 351.605C453.648 351.334 453 350.86 452.206 350.142C451.42 349.432 450.605 348.586 449.826 347.645C449.046 346.703 448.379 345.761 447.849 344.888C447.312 344.004 447 343.331 446.844 342.932C446.678 342.509 446.783 342.636 446.873 343.297C446.962 343.951 447.089 345.531 446.612 347.723L387.982 334.977ZM449.797 411C461.84 411 471.045 404.99 475.306 401.916C480.576 398.112 485.43 393.409 489.601 388.909C498.043 379.798 506.65 368.264 514.145 357.227C521.73 346.056 528.764 334.519 534.012 324.942C536.614 320.193 538.983 315.552 540.792 311.464C541.685 309.446 542.63 307.143 543.407 304.778C543.917 303.226 545.447 298.555 545.447 292.925H485.447C485.447 290.237 485.848 288.273 486.001 287.576C486.19 286.709 486.368 286.163 486.405 286.05C486.473 285.841 486.374 286.168 485.926 287.18C485.053 289.153 483.55 292.175 481.394 296.11C477.125 303.9 471.099 313.813 464.506 323.523C457.822 333.367 451.134 342.146 445.591 348.127C442.769 351.173 440.958 352.711 440.194 353.262C438.421 354.542 442.223 351 449.797 351V411ZM545.447 292.925C545.447 276.351 534.784 266.257 527.866 261.867C520.849 257.414 512.573 255.125 504.722 255.125V315.125C501.421 315.125 498.508 314.298 495.716 312.527C493.023 310.818 485.447 304.624 485.447 292.925H545.447ZM618.391 290.65L595.613 271.126L595.459 271.306L595.309 271.487L618.391 290.65ZM534.541 304.3L543.276 275.6L514.497 266.841L505.817 295.643L534.541 304.3ZM490.991 323.8L520.25 330.425L520.253 330.412L520.256 330.399L490.991 323.8ZM623.591 253.175C620.068 253.175 615.484 253.751 610.625 255.924C605.642 258.153 601.958 261.351 599.376 264.431C597.018 267.244 595.648 269.88 595.006 271.197C594.372 272.499 593.89 273.707 593.806 273.915C593.556 274.53 594.289 272.671 595.613 271.126L641.169 310.174C643.632 307.3 645.497 304.469 646.938 301.794C648.314 299.242 649.192 296.994 649.394 296.498C649.574 296.055 649.331 296.684 648.942 297.484C648.545 298.298 647.426 300.508 645.358 302.975C643.065 305.71 639.709 308.644 635.123 310.695C630.662 312.69 626.545 313.175 623.591 313.175V253.175ZM595.309 271.487C587.227 281.222 577.653 293.699 566.344 304.546C560.827 309.836 555.841 313.779 551.591 316.267C547.204 318.835 545.36 318.825 545.591 318.825V378.825C559.796 378.825 572.252 373.696 581.902 368.048C591.688 362.319 600.473 354.948 607.876 347.848C622.404 333.914 635.254 317.303 641.473 309.813L595.309 271.487ZM545.591 318.825C547.036 318.825 551.583 319.415 555.822 323.434C557.673 325.19 558.782 326.988 559.399 328.311C559.989 329.577 560.129 330.395 560.139 330.456C560.151 330.525 560.082 330.136 560.094 329.182C560.105 328.246 560.192 326.966 560.416 325.321C560.872 321.981 561.801 317.812 563.265 312.957L505.817 295.643C501.907 308.617 498.406 325.245 500.98 340.463C502.35 348.561 505.873 358.757 514.54 366.975C523.674 375.635 535.046 378.825 545.591 378.825V318.825ZM525.806 333C536.738 336.327 550.19 337.55 556.316 337.55V277.55C556.388 277.55 555.838 277.545 554.634 277.452C553.526 277.366 552.158 277.228 550.675 277.033C547.474 276.613 544.807 276.066 543.276 275.6L525.806 333ZM556.316 337.55C572.498 337.55 585.128 327.969 591.67 322.263C599.577 315.367 606.805 306.715 612.783 298.26C618.835 289.701 624.323 280.325 628.425 271.37C632.033 263.494 636.366 252.17 636.366 240.925H576.366C576.366 238.618 576.758 240.09 573.876 246.383C571.488 251.595 567.937 257.758 563.792 263.621C559.573 269.588 555.447 274.241 552.233 277.044C550.637 278.436 549.861 278.847 549.962 278.795C550.057 278.745 550.609 278.465 551.589 278.181C552.574 277.896 554.194 277.55 556.316 277.55V337.55ZM636.366 240.925C636.366 224.872 626.177 213.938 621.425 209.399C615.343 203.591 608.013 198.804 601.147 195.102C588.255 188.149 570.055 181.35 554.041 181.35V241.35C553.977 241.35 554.574 241.354 555.917 241.605C557.204 241.845 558.837 242.248 560.75 242.85C564.631 244.072 568.864 245.861 572.666 247.911C576.647 250.058 579.046 251.893 579.983 252.788C580.435 253.22 579.859 252.784 579.024 251.372C578.221 250.014 576.366 246.356 576.366 240.925H636.366ZM554.041 181.35C532.967 181.35 518.374 196.076 510.878 205.14C502.069 215.793 494.491 229.212 488.276 242.169C475.771 268.239 465.943 298.497 461.726 317.201L520.256 330.399C523.514 315.953 531.886 289.986 542.374 268.118C547.656 257.106 552.773 248.629 557.117 243.377C562.773 236.536 561.79 241.35 554.041 241.35V181.35ZM461.731 317.175C458.731 330.428 462.498 343.127 465.706 351.146C469.337 360.222 474.647 369.145 480.546 376.949C486.428 384.732 493.697 392.461 501.864 398.544C509.325 404.101 521.159 411 535.516 411V351C536.855 351 537.881 351.171 538.53 351.321C539.174 351.47 539.531 351.619 539.584 351.641C539.629 351.66 538.981 351.376 537.704 350.425C535.085 348.475 531.709 345.134 528.411 340.77C525.128 336.427 522.72 332.126 521.415 328.863C521.109 328.098 520.9 327.48 520.762 327.013C520.695 326.783 520.649 326.605 520.619 326.477C520.605 326.414 520.594 326.367 520.588 326.333C520.584 326.317 520.582 326.305 520.581 326.296C520.579 326.288 520.578 326.283 520.578 326.284C520.578 326.284 520.579 326.288 520.58 326.297C520.582 326.306 520.584 326.319 520.586 326.337C520.591 326.373 520.597 326.43 520.604 326.505C520.617 326.654 520.633 326.896 520.634 327.223C520.635 327.854 520.58 328.968 520.25 330.425L461.731 317.175ZM535.516 411C553.515 411 570.214 401.285 581.551 393.358C594.246 384.481 606.806 373.037 617.676 361.818C628.614 350.526 638.59 338.684 646.032 328.491C649.719 323.442 653.133 318.322 655.774 313.558C657.085 311.194 658.482 308.425 659.625 305.46C660.546 303.073 662.366 297.939 662.366 291.625H602.366C602.366 288.926 602.781 286.909 603.02 285.921C603.28 284.844 603.544 284.13 603.645 283.868C603.83 283.388 603.813 283.54 603.3 284.464C602.295 286.277 600.429 289.2 597.575 293.109C591.936 300.832 583.793 310.561 574.581 320.07C565.3 329.65 555.679 338.235 547.168 344.186C537.299 351.087 533.767 351 535.516 351V411ZM662.366 291.625C662.366 277.849 654.824 268.198 649.185 263.214C643.789 258.446 634.821 253.175 623.591 253.175V313.175C619.302 313.175 616.136 312.086 614.364 311.305C612.44 310.456 610.822 309.384 609.453 308.174C607.307 306.277 602.366 300.851 602.366 291.625H662.366ZM575.816 265.725C570.791 265.725 564.368 264.194 558.685 259.499C553.339 255.081 551.061 249.854 550.126 246.685C548.548 241.337 549.551 237.885 549.3 239.242C549.036 240.664 547.681 244.955 544.677 250.83C541.796 256.465 538.512 261.371 535.858 264.366C534.518 265.878 534.026 266.12 534.533 265.784C534.779 265.62 538.28 263.25 544.291 263.25V323.25C554.608 323.25 562.73 319.082 567.716 315.773C572.962 312.29 577.326 308.039 580.765 304.157C587.668 296.366 593.627 286.892 598.099 278.145C602.448 269.639 606.556 259.549 608.293 250.185C609.042 246.148 610.18 238.202 607.674 229.709C606.275 224.967 603.268 218.503 596.901 213.243C590.199 207.706 582.465 205.725 575.816 205.725V265.725ZM544.291 263.25C547.867 263.25 553.881 264.106 559.781 268.455C565.838 272.92 568.667 278.768 569.809 283.057C570.849 286.961 570.636 289.93 570.529 290.976C570.405 292.194 570.206 292.803 570.26 292.618C570.694 291.121 572.652 286.656 576.644 280.113C580.348 274.042 584.596 268.147 588.018 264.109C588.84 263.14 589.532 262.374 590.081 261.802C590.652 261.206 590.928 260.967 590.915 260.978C590.898 260.993 590.728 261.138 590.414 261.368C590.114 261.587 589.53 261.995 588.687 262.473C587.755 263.001 582.969 265.725 575.816 265.725V205.725C567.607 205.725 561.528 208.899 559.109 210.269C556.082 211.985 553.617 213.923 551.875 215.416C548.341 218.444 545.039 222.02 542.245 225.318C536.526 232.066 530.496 240.552 525.425 248.862C520.643 256.7 515.328 266.617 512.634 275.905C511.545 279.662 509.199 288.619 511.831 298.499C513.392 304.361 516.981 311.446 524.181 316.753C531.225 321.945 538.765 323.25 544.291 323.25V263.25Z" fill="#1D1A1A"/>
</g>
<g filter="url(#filter1_d_221_38)">
<path d="M239.925 473.625C239.925 469.075 234.725 465.175 231.15 465.175C228.875 465.175 229.85 468.1 225.95 472.65C211.65 489.875 181.1 530.825 153.15 530.825C110.575 530.825 167.45 417.725 183.375 417.725C196.375 417.725 182.725 460.625 171.675 470.05C168.75 472.65 164.85 471.025 164.85 473.625C164.85 478.175 169.725 482.725 175.9 482.725C194.75 482.725 213.925 440.8 213.925 422.925C213.925 410.575 179.475 393.35 161.6 393.35C134.95 393.35 106.025 472.65 98.55 505.8C94.65 523.025 123.575 563 143.075 563C175.575 563 239.925 485.975 239.925 473.625ZM384.679 467.45C382.08 467.45 380.129 469.4 380.129 472C380.129 486.95 334.629 488.575 334.629 488.575C341.454 459 340.479 439.175 332.029 416.75C328.454 407.325 300.829 393.35 281.004 393.35C260.529 393.35 238.429 436.9 249.479 471.025C242.979 468.75 235.504 466.15 230.954 466.15C228.354 466.15 226.729 466.8 226.404 468.425C221.854 480.45 220.229 485.975 216.004 502.875C209.179 530.5 229.329 563 257.929 563C303.104 563 326.829 511 326.829 511C361.93 505.475 393.454 489.875 393.454 476.225C393.454 471.35 389.88 467.45 384.679 467.45ZM303.104 484.35C303.104 484.35 270.279 472.65 278.404 439.825C280.679 430.075 289.454 416.75 298.554 416.75C314.154 416.75 312.529 452.5 303.104 484.35ZM267.029 530.175C251.104 530.175 255.654 505.15 259.879 489.225C267.354 497.675 278.729 504.5 294.004 508.075C294.004 508.075 281.329 530.175 267.029 530.175ZM500.882 466.8C498.932 466.8 498.932 468.75 496.982 470.375C494.382 472.975 480.407 478.825 470.007 478.825C466.432 478.825 463.507 478.5 461.232 476.875C472.282 446.325 480.082 419.025 480.082 419.025C489.182 388.475 480.407 381.65 470.007 381.65C435.232 381.65 414.757 456.075 433.282 485.65C422.557 510.35 411.182 530.825 403.382 530.825C390.382 530.825 415.082 433.325 416.382 426.825C419.632 413.825 393.957 397.25 383.232 397.25C378.682 397.25 377.057 400.5 376.732 402.45C375.432 407.325 380.632 408.95 378.032 419.675C376.082 429.1 359.182 501.575 356.257 515.225C352.357 531.475 389.082 563 407.282 563C422.232 563 439.132 531.475 452.782 498C479.757 502.875 507.057 483.7 507.057 474.275C507.057 471.35 503.807 466.8 500.882 466.8ZM654.402 467.125C650.827 467.125 652.452 470.7 648.877 476.225C638.152 493.775 615.077 530.825 607.927 530.825C605.977 530.825 606.302 526.925 607.927 520.75C611.502 503.85 629.702 424.875 630.677 421.625C632.952 410.9 638.477 411.55 639.452 406.675C640.102 404.725 639.777 401.15 635.877 399.2C633.277 397.9 629.052 397.25 624.177 397.25C611.502 397.25 595.252 401.8 592.977 411.225C592.652 411.875 592.327 413.5 592.002 415.775C585.827 402.775 574.452 393.35 557.227 393.35C524.402 393.35 499.702 453.8 488.977 500.275C480.527 537.325 516.277 563 530.902 563C539.677 563 554.302 543.825 567.302 521.725V522.7C566.977 523.025 566.977 523.025 566.977 523.35C563.727 538.3 584.527 563 599.477 563C617.352 563 665.452 484.025 665.452 474.925C665.452 470.05 658.952 467.125 654.402 467.125ZM536.752 530.825C515.302 530.825 549.752 417.4 570.552 417.4C590.702 417.4 562.102 530.825 536.752 530.825Z" fill="white"/>
<path d="M225.95 472.65L203.172 453.126L203.019 453.306L202.868 453.487L225.95 472.65ZM171.675 470.05L152.207 447.225L151.973 447.424L151.744 447.628L171.675 470.05ZM98.55 505.8L127.809 512.425L127.812 512.412L127.815 512.399L98.55 505.8ZM269.925 473.625C269.925 459.849 262.384 450.198 256.744 445.214C251.349 440.446 242.38 435.175 231.15 435.175V495.175C226.861 495.175 223.695 494.086 221.924 493.305C219.999 492.456 218.381 491.384 217.012 490.174C214.866 488.277 209.925 482.851 209.925 473.625H269.925ZM231.15 435.175C227.627 435.175 223.043 435.751 218.184 437.924C213.202 440.153 209.517 443.351 206.935 446.431C204.577 449.244 203.207 451.88 202.566 453.197C201.931 454.499 201.45 455.707 201.365 455.915C201.115 456.53 201.848 454.671 203.172 453.126L248.728 492.174C251.191 489.3 253.056 486.469 254.497 483.794C255.873 481.242 256.752 478.994 256.953 478.498C257.133 478.055 256.891 478.684 256.501 479.484C256.104 480.298 254.986 482.508 252.917 484.975C250.625 487.71 247.268 490.644 242.682 492.695C238.221 494.69 234.104 495.175 231.15 495.175V435.175ZM202.868 453.487C194.786 463.222 185.212 475.699 173.903 486.546C168.387 491.836 163.4 495.779 159.15 498.267C154.763 500.835 152.919 500.825 153.15 500.825V560.825C167.356 560.825 179.812 555.696 189.461 550.048C199.247 544.319 208.032 536.948 215.435 529.848C229.963 515.914 242.814 499.303 249.032 491.813L202.868 453.487ZM153.15 500.825C155.113 500.825 160.7 501.882 164.945 507.159C168.144 511.135 167.73 514.104 167.65 512.005C167.483 507.641 169.28 498.148 174.321 485.055C179.054 472.763 185.389 460.515 191.085 451.77C193.991 447.309 196.164 444.637 197.304 443.459C197.9 442.844 197.539 443.343 196.234 444.187C195.41 444.719 190.737 447.725 183.375 447.725V387.725C174.022 387.725 167.038 391.614 163.653 393.804C159.786 396.304 156.612 399.232 154.211 401.71C149.36 406.718 144.809 412.882 140.809 419.024C132.692 431.485 124.483 447.512 118.329 463.495C112.483 478.677 107.049 497.459 107.694 514.302C108.02 522.806 110.023 534.611 118.198 544.772C127.421 556.234 140.543 560.825 153.15 560.825V500.825ZM183.375 447.725C179.952 447.725 175.841 446.986 171.716 444.851C167.6 442.72 164.622 439.796 162.629 437.001C159.064 431.999 158.739 427.628 158.706 427.268C158.615 426.26 158.806 427.929 157.553 432.636C156.464 436.728 154.813 441.12 153.074 444.656C152.215 446.401 151.502 447.598 151.044 448.273C150.457 449.139 150.77 448.451 152.207 447.225L191.143 492.875C198.73 486.404 203.846 477.373 206.912 471.14C210.434 463.981 213.455 455.881 215.534 448.071C217.45 440.874 219.306 431.229 218.464 421.882C218.056 417.354 216.75 409.557 211.487 402.173C205.058 393.154 194.785 387.725 183.375 387.725V447.725ZM151.744 447.628C157.603 442.42 164.698 441.794 161.799 442.321C161.426 442.389 159.942 442.652 158.239 443.123C156.562 443.587 153.315 444.605 149.747 446.807C145.854 449.21 141.611 453.012 138.586 458.652C135.634 464.156 134.85 469.533 134.85 473.625H194.85C194.85 477.067 194.188 481.927 191.461 487.011C188.661 492.232 184.745 495.714 181.263 497.863C178.107 499.812 175.354 500.642 174.237 500.951C173.095 501.267 172.235 501.408 172.532 501.354C172.568 501.347 172.607 501.34 172.71 501.322C172.797 501.306 172.934 501.282 173.083 501.254C173.384 501.199 173.832 501.115 174.355 501.006C175.396 500.789 176.923 500.434 178.694 499.856C182.374 498.653 187.085 496.491 191.606 492.472L151.744 447.628ZM134.85 473.625C134.85 486.648 141.572 496.69 148.536 502.659C155.805 508.889 165.445 512.725 175.9 512.725V452.725C180.18 452.725 184.295 454.286 187.583 457.104C190.566 459.66 194.85 465.152 194.85 473.625H134.85ZM175.9 512.725C191.735 512.725 203.546 504.184 210.414 497.685C217.774 490.72 223.663 482.178 228.131 474.232C236.505 459.339 243.925 439.138 243.925 422.925H183.925C183.925 422.659 183.94 423.251 183.627 424.845C183.333 426.341 182.838 428.273 182.101 430.546C180.607 435.145 178.412 440.235 175.832 444.824C173.15 449.594 170.71 452.651 169.173 454.105C167.145 456.025 169.49 452.725 175.9 452.725V512.725ZM243.925 422.925C243.925 406.872 233.736 395.938 228.984 391.399C222.903 385.591 215.572 380.804 208.706 377.102C195.815 370.149 177.614 363.35 161.6 363.35V423.35C161.536 423.35 162.133 423.354 163.476 423.605C164.763 423.845 166.396 424.248 168.31 424.85C172.19 426.072 176.423 427.861 180.225 429.911C184.206 432.058 186.605 433.893 187.542 434.788C187.994 435.22 187.418 434.784 186.583 433.372C185.78 432.014 183.925 428.356 183.925 422.925H243.925ZM161.6 363.35C140.526 363.35 125.933 378.076 118.438 387.14C109.629 397.793 102.05 411.212 95.8351 424.169C83.3302 450.239 73.5023 480.497 69.2848 499.201L127.815 512.399C131.073 497.953 139.445 471.986 149.934 450.118C155.216 439.106 160.332 430.629 164.676 425.377C170.333 418.536 169.349 423.35 161.6 423.35V363.35ZM69.2906 499.175C66.29 512.428 70.0575 525.127 73.2652 533.146C76.8958 542.222 82.2061 551.145 88.1049 558.949C93.9877 566.732 101.256 574.461 109.423 580.544C116.884 586.101 128.719 593 143.075 593V533C144.414 533 145.44 533.171 146.089 533.321C146.733 533.47 147.09 533.619 147.143 533.641C147.188 533.66 146.54 533.376 145.263 532.425C142.644 530.475 139.269 527.134 135.97 522.77C132.688 518.427 130.279 514.126 128.974 510.863C128.668 510.098 128.459 509.48 128.322 509.013C128.254 508.783 128.208 508.605 128.179 508.477C128.164 508.414 128.154 508.367 128.147 508.333C128.144 508.317 128.141 508.305 128.14 508.296C128.138 508.288 128.138 508.283 128.138 508.284C128.138 508.284 128.138 508.288 128.14 508.297C128.141 508.306 128.143 508.319 128.145 508.337C128.15 508.373 128.156 508.43 128.163 508.505C128.177 508.654 128.192 508.896 128.193 509.223C128.194 509.854 128.139 510.968 127.809 512.425L69.2906 499.175ZM143.075 593C161.074 593 177.773 583.285 189.11 575.358C201.806 566.481 214.366 555.037 225.235 543.818C236.173 532.526 246.149 520.684 253.591 510.491C257.278 505.442 260.692 500.322 263.334 495.558C264.644 493.194 266.041 490.425 267.185 487.46C268.105 485.073 269.925 479.939 269.925 473.625H209.925C209.925 470.926 210.34 468.909 210.579 467.921C210.839 466.844 211.103 466.13 211.204 465.868C211.389 465.388 211.372 465.54 210.859 466.464C209.854 468.277 207.988 471.2 205.134 475.109C199.495 482.832 191.352 492.561 182.14 502.07C172.86 511.65 163.238 520.235 154.728 526.186C144.858 533.087 141.326 533 143.075 533V593ZM334.629 488.575L305.398 481.829L296.6 519.952L335.7 518.556L334.629 488.575ZM332.029 416.75L360.103 406.172L360.091 406.141L360.079 406.11L332.029 416.75ZM249.479 471.025L239.569 499.341L296.651 519.32L278.02 461.783L249.479 471.025ZM226.404 468.425L254.463 479.042L255.337 476.731L255.822 474.308L226.404 468.425ZM216.004 502.875L186.9 495.599L186.89 495.639L186.88 495.68L216.004 502.875ZM326.829 511L322.165 481.365L306.231 483.873L299.536 498.547L326.829 511ZM303.104 484.35L293.032 512.609L322.88 523.247L331.871 492.863L303.104 484.35ZM278.404 439.825L307.526 447.033L307.574 446.838L307.62 446.642L278.404 439.825ZM259.879 489.225L282.349 469.348L245.244 427.402L230.883 481.532L259.879 489.225ZM294.004 508.075L320.028 523L340.075 488.047L300.841 478.864L294.004 508.075ZM384.679 437.45C365.511 437.45 350.129 452.831 350.129 472H410.129C410.129 485.969 398.648 497.45 384.679 497.45V437.45ZM350.129 472C350.129 465.558 352.785 460.576 355.241 457.663C356.358 456.339 357.368 455.502 357.967 455.054C358.574 454.6 358.963 454.394 359.001 454.374C359.009 454.37 358.379 454.686 356.863 455.156C355.418 455.603 353.611 456.053 351.496 456.476C347.226 457.33 342.685 457.879 339.036 458.21C337.258 458.37 335.795 458.47 334.812 458.528C334.323 458.557 333.959 458.576 333.742 458.586C333.634 458.591 333.562 458.594 333.531 458.595C333.515 458.596 333.509 458.596 333.514 458.596C333.516 458.596 333.521 458.595 333.528 458.595C333.532 458.595 333.536 458.595 333.542 458.595C333.544 458.595 333.548 458.594 333.55 458.594C333.554 458.594 333.559 458.594 334.629 488.575C335.7 518.556 335.705 518.556 335.71 518.556C335.712 518.555 335.718 518.555 335.722 518.555C335.729 518.555 335.738 518.555 335.747 518.554C335.766 518.553 335.787 518.553 335.811 518.552C335.86 518.55 335.919 518.548 335.989 518.545C336.13 518.539 336.314 518.531 336.539 518.52C336.988 518.5 337.602 518.468 338.357 518.424C339.863 518.334 341.954 518.191 344.442 517.965C349.324 517.524 356.158 516.732 363.263 515.311C369.901 513.984 378.941 511.7 387.039 507.42C393.767 503.863 410.129 493.251 410.129 472H350.129ZM363.861 495.321C371.743 461.167 371.029 435.168 360.103 406.172L303.956 427.328C309.93 443.182 311.166 456.833 305.398 481.829L363.861 495.321ZM360.079 406.11C356.141 395.726 348.174 388.86 343.708 385.401C338.213 381.144 331.851 377.444 325.487 374.419C313.256 368.607 296.874 363.35 281.004 363.35V423.35C282.644 423.35 285.398 423.673 289.066 424.657C292.633 425.613 296.352 427.004 299.734 428.612C303.202 430.26 305.656 431.82 306.965 432.834C307.611 433.335 307.575 433.392 307.156 432.918C306.873 432.598 305.258 430.76 303.98 427.39L360.079 406.11ZM281.004 363.35C265.166 363.35 252.864 371.557 245.044 379.111C236.877 387 230.525 396.989 225.985 407.254C217.072 427.403 212.612 454.554 220.939 480.267L278.02 461.783C275.297 453.371 276.362 441.684 280.856 431.527C283.018 426.639 285.339 423.608 286.73 422.265C288.467 420.587 286.605 423.35 281.004 423.35V363.35ZM259.39 442.709C256.283 441.622 251.982 440.112 247.775 438.902C244.184 437.87 237.728 436.15 230.954 436.15V496.15C229.471 496.15 228.736 495.964 229.151 496.045C229.442 496.101 230.097 496.25 231.197 496.566C233.489 497.226 236.176 498.153 239.569 499.341L259.39 442.709ZM230.954 436.15C227.876 436.15 221.63 436.418 214.984 439.566C206.748 443.467 199.237 451.293 196.987 462.542L255.822 474.308C254.999 478.422 253.149 482.691 250.033 486.469C246.995 490.154 243.533 492.434 240.669 493.79C235.566 496.207 231.433 496.15 230.954 496.15V436.15ZM198.346 457.808C193.24 471.304 191.29 478.041 186.9 495.599L245.109 510.151C249.169 493.909 250.469 489.596 254.463 479.042L198.346 457.808ZM186.88 495.68C181.217 518.6 186.844 542.216 198.762 559.998C210.778 577.928 231.476 593 257.929 593V533C255.783 533 252.106 531.822 248.604 526.595C245.002 521.221 243.967 514.775 245.129 510.07L186.88 495.68ZM257.929 593C292.802 593 317.52 572.9 331.723 556.953C339.063 548.711 344.513 540.597 348.13 534.58C349.957 531.54 351.365 528.952 352.357 527.039C352.854 526.081 353.249 525.285 353.543 524.68C353.69 524.377 353.811 524.121 353.908 523.916C353.956 523.813 353.998 523.723 354.034 523.645C354.052 523.607 354.068 523.571 354.083 523.539C354.091 523.523 354.098 523.508 354.104 523.493C354.108 523.486 354.112 523.476 354.114 523.472C354.118 523.462 354.123 523.453 326.829 511C299.536 498.547 299.54 498.538 299.545 498.529C299.546 498.526 299.55 498.517 299.553 498.511C299.558 498.5 299.563 498.489 299.567 498.48C299.576 498.46 299.584 498.444 299.59 498.43C299.603 498.403 299.61 498.387 299.612 498.383C299.616 498.374 299.599 498.41 299.561 498.488C299.486 498.644 299.327 498.966 299.087 499.429C298.604 500.36 297.807 501.835 296.704 503.67C294.46 507.403 291.155 512.289 286.917 517.047C277.964 527.1 268.232 533 257.929 533V593ZM331.494 540.635C351.616 537.468 371.422 531.346 387.003 523.349C394.703 519.398 402.634 514.347 409.085 507.961C415.028 502.079 423.454 491.289 423.454 476.225H363.454C363.454 467.986 367.941 464.265 366.875 465.319C366.319 465.87 364.175 467.624 359.606 469.969C350.649 474.566 337.143 479.007 322.165 481.365L331.494 540.635ZM423.454 476.225C423.454 455.521 407.178 437.45 384.679 437.45V497.45C379.469 497.45 373.827 495.355 369.53 490.945C365.346 486.651 363.454 481.215 363.454 476.225H423.454ZM303.104 484.35C313.177 456.091 313.19 456.096 313.203 456.101C313.207 456.102 313.22 456.107 313.229 456.11C313.246 456.116 313.262 456.122 313.278 456.128C313.31 456.139 313.341 456.15 313.369 456.161C313.426 456.182 313.477 456.2 313.521 456.217C313.609 456.25 313.672 456.274 313.711 456.29C313.789 456.32 313.777 456.317 313.69 456.279C313.508 456.2 313.066 455.998 312.471 455.674C311.178 454.968 309.773 454.013 308.677 452.943C307.633 451.923 307.338 451.265 307.251 451.007C307.251 451.007 306.797 449.976 307.526 447.033L249.283 432.617C242.142 461.469 253.642 483.05 266.738 495.851C272.833 501.809 279.127 505.83 283.734 508.344C286.089 509.629 288.149 510.599 289.73 511.287C290.525 511.633 291.21 511.914 291.765 512.132C292.042 512.241 292.288 512.335 292.5 512.414C292.606 512.454 292.704 512.49 292.792 512.522C292.837 512.538 292.879 512.554 292.919 512.568C292.939 512.575 292.958 512.582 292.977 512.589C292.987 512.592 293 512.597 293.005 512.599C293.019 512.604 293.032 512.609 303.104 484.35ZM307.62 446.642C307.596 446.742 307.723 446.223 308.169 445.313C308.599 444.437 309.07 443.719 309.407 443.295C309.814 442.784 309.56 443.27 308.335 444.073C307.113 444.874 303.716 446.75 298.554 446.75V386.75C279.855 386.75 267.653 399.398 262.433 405.967C256.197 413.814 251.387 423.591 249.189 433.008L307.62 446.642ZM298.554 446.75C294.364 446.75 289.829 445.416 285.974 442.613C282.465 440.062 280.839 437.266 280.255 436.079C279.361 434.264 280.091 434.699 280.226 439.455C280.474 448.222 278.483 461.83 274.338 475.837L331.871 492.863C337.151 475.02 340.685 454.828 340.202 437.758C339.971 429.595 338.771 419.101 334.09 409.588C328.728 398.693 317.075 386.75 298.554 386.75V446.75ZM267.029 500.175C269.028 500.175 272.197 500.591 275.694 502.388C279.255 504.219 281.831 506.805 283.486 509.263C286.287 513.423 285.949 516.362 285.875 514.491C285.825 513.222 285.966 510.842 286.559 507.322C287.125 503.957 287.961 500.368 288.876 496.918L230.883 481.532C228.703 489.749 225.405 503.755 225.922 516.853C226.173 523.229 227.419 533.419 233.713 542.769C241.391 554.174 253.72 560.175 267.029 560.175V500.175ZM237.41 509.102C249.658 522.948 266.88 532.537 287.168 537.286L300.841 478.864C290.579 476.463 285.051 472.402 282.349 469.348L237.41 509.102ZM294.004 508.075C267.981 493.15 267.984 493.144 267.988 493.137C267.989 493.136 267.992 493.13 267.994 493.126C267.999 493.118 268.003 493.111 268.007 493.104C268.015 493.09 268.023 493.077 268.029 493.065C268.043 493.042 268.053 493.024 268.061 493.01C268.078 492.983 268.083 492.973 268.078 492.981C268.069 492.998 268.019 493.081 267.932 493.221C267.756 493.505 267.441 494.001 267.009 494.636C266.105 495.962 264.891 497.596 263.548 499.092C262.892 499.824 262.3 500.416 261.796 500.869C261.55 501.09 261.351 501.255 261.2 501.372C261.127 501.429 261.069 501.471 261.029 501.5C260.989 501.529 260.969 501.542 260.97 501.541C260.97 501.541 260.995 501.525 261.045 501.496C261.095 501.467 261.173 501.424 261.28 501.369C261.49 501.263 261.839 501.101 262.325 500.93C263.302 500.586 264.919 500.175 267.029 500.175V560.175C278.348 560.175 287.483 555.854 293.585 551.903C299.776 547.893 304.696 543.076 308.211 539.158C311.824 535.129 314.673 531.238 316.593 528.421C317.572 526.983 318.359 525.753 318.932 524.828C319.219 524.364 319.456 523.973 319.639 523.665C319.731 523.511 319.809 523.378 319.874 523.267C319.906 523.211 319.936 523.161 319.961 523.117C319.974 523.094 319.986 523.074 319.997 523.054C320.003 523.044 320.008 523.035 320.013 523.026C320.016 523.022 320.02 523.015 320.021 523.013C320.025 523.007 320.028 523 294.004 508.075ZM496.982 470.375L477.777 447.328L476.731 448.2L475.769 449.162L496.982 470.375ZM461.232 476.875L433.021 466.671L425.283 488.064L443.795 501.287L461.232 476.875ZM480.082 419.025L451.331 410.461L451.283 410.622L451.237 410.783L480.082 419.025ZM433.282 485.65L460.8 497.599L467.091 483.111L458.706 469.725L433.282 485.65ZM416.382 426.825L387.278 419.549L387.105 420.241L386.965 420.942L416.382 426.825ZM376.732 402.45L405.719 410.18L406.088 408.795L406.324 407.382L376.732 402.45ZM378.032 419.675L348.877 412.607L348.757 413.1L348.654 413.597L378.032 419.675ZM356.257 515.225L385.429 522.226L385.514 521.87L385.591 521.511L356.257 515.225ZM452.782 498L458.117 468.478L434.186 464.153L425.003 486.673L452.782 498ZM500.882 436.8C494.838 436.8 488.475 438.482 482.799 442.361C477.943 445.679 475.198 449.58 474.423 450.678C471.914 454.232 474.775 449.83 477.777 447.328L516.188 493.422C519.011 491.069 520.97 488.711 522.247 486.988C522.842 486.185 523.302 485.497 523.495 485.208C523.817 484.728 523.606 485.046 523.441 485.279C523.154 485.685 520.897 488.998 516.65 491.899C514.36 493.464 511.713 494.774 508.767 495.648C505.864 496.509 503.169 496.8 500.882 496.8V436.8ZM475.769 449.162C476.904 448.027 477.868 447.271 478.372 446.893C478.926 446.478 479.345 446.207 479.554 446.075C479.955 445.824 480.065 445.786 479.776 445.93C479.211 446.211 478.072 446.713 476.529 447.252C475.01 447.783 473.464 448.221 472.096 448.507C470.644 448.811 469.961 448.825 470.007 448.825V508.825C479.957 508.825 489.65 506.224 496.31 503.898C499.886 502.649 503.379 501.202 506.49 499.655C508.515 498.647 513.795 495.988 518.195 491.588L475.769 449.162ZM470.007 448.825C468.885 448.825 469.508 448.748 470.858 449.011C472.464 449.323 475.466 450.175 478.669 452.463L443.795 501.287C454.442 508.892 466.04 508.825 470.007 508.825V448.825ZM489.444 487.079C495.16 471.273 500.014 456.374 503.431 445.454C505.144 439.982 506.505 435.48 507.444 432.327C507.914 430.749 508.278 429.508 508.528 428.649C508.653 428.22 508.75 427.886 508.817 427.653C508.85 427.537 508.876 427.446 508.895 427.382C508.904 427.349 508.912 427.324 508.917 427.304C508.92 427.295 508.922 427.287 508.924 427.281C508.925 427.277 508.926 427.275 508.926 427.272C508.927 427.271 508.927 427.27 508.927 427.269C508.928 427.268 508.928 427.267 480.082 419.025C451.237 410.783 451.237 410.782 451.237 410.781C451.237 410.781 451.237 410.78 451.237 410.78C451.238 410.78 451.238 410.779 451.238 410.779C451.238 410.78 451.237 410.782 451.236 410.785C451.234 410.793 451.23 410.806 451.224 410.827C451.212 410.867 451.193 410.933 451.167 411.025C451.114 411.207 451.033 411.49 450.923 411.866C450.703 412.62 450.372 413.75 449.938 415.209C449.068 418.129 447.789 422.361 446.17 427.533C442.926 437.901 438.354 451.927 433.021 466.671L489.444 487.079ZM508.834 427.589C513.743 411.107 516.678 392.883 509.953 377.113C506.1 368.08 499.522 360.973 491.117 356.592C483.33 352.532 475.622 351.65 470.007 351.65V411.65C469.592 411.65 466.881 411.621 463.38 409.796C459.261 407.648 456.258 404.157 454.762 400.65C453.54 397.786 453.984 396.482 453.863 398.51C453.748 400.437 453.189 404.222 451.331 410.461L508.834 427.589ZM470.007 351.65C449.758 351.65 434.396 362.599 424.432 373.967C414.456 385.35 407.518 399.585 403.089 413.401C398.604 427.393 396.131 442.688 396.317 457.306C396.498 471.436 399.212 487.772 407.858 501.575L458.706 469.725C458.09 468.741 456.417 464.683 456.313 456.54C456.215 448.886 457.561 440.029 460.225 431.718C462.946 423.23 466.49 417.011 469.554 413.515C472.631 410.004 472.869 411.65 470.007 411.65V351.65ZM405.764 473.701C400.608 485.578 395.791 495.244 391.838 501.532C389.796 504.78 388.722 505.928 388.74 505.911C388.784 505.867 389.771 504.87 391.732 503.765C393.694 502.659 397.747 500.825 403.382 500.825V560.825C417.757 560.825 427.342 552.121 430.933 548.569C435.613 543.94 439.515 538.426 442.633 533.468C448.998 523.343 455.232 510.422 460.8 497.599L405.764 473.701ZM403.382 500.825C413.73 500.825 421.391 506.382 425.434 511.812C428.63 516.105 429.397 519.902 429.507 520.419C429.786 521.739 429.481 521.136 429.701 517.135C430.097 509.936 431.697 499.132 434.008 486.78C436.261 474.74 438.966 462.374 441.222 452.494C443.259 443.57 445.382 434.795 445.8 432.708L386.965 420.942C386.993 420.8 386.936 421.077 386.659 422.268C386.422 423.287 386.11 424.612 385.716 426.282C384.939 429.583 383.899 434.008 382.727 439.14C380.392 449.369 377.491 462.597 375.031 475.745C372.63 488.581 370.412 502.558 369.791 513.843C369.503 519.085 369.392 526.149 370.804 532.827C371.479 536.022 373.047 541.921 377.309 547.645C382.418 554.506 391.409 560.825 403.382 560.825V500.825ZM445.487 434.101C449.047 419.857 443.913 407.832 439.509 400.799C434.957 393.53 428.929 387.767 423.565 383.559C418.036 379.221 411.878 375.492 405.81 372.733C400.482 370.311 392.243 367.25 383.232 367.25V427.25C382.016 427.25 381.13 427.137 380.655 427.06C380.161 426.981 379.881 426.905 379.836 426.892C379.779 426.876 380.172 426.987 380.977 427.353C382.638 428.108 384.707 429.335 386.53 430.766C387.403 431.45 388.042 432.043 388.457 432.478C388.895 432.936 388.888 433.013 388.655 432.64C388.442 432.3 387.697 431.041 387.177 428.898C386.625 426.623 386.334 423.325 387.278 419.549L445.487 434.101ZM383.232 367.25C372.995 367.25 363.581 371.245 356.773 378.326C350.727 384.614 348.079 391.885 347.14 397.518L406.324 407.382C405.71 411.065 404.038 415.736 400.023 419.912C395.246 424.88 388.919 427.25 383.232 427.25V367.25ZM347.745 394.72C346.863 398.03 346.448 401.431 346.53 404.866C346.611 408.245 347.159 411.113 347.737 413.31C348.275 415.362 348.904 417.044 349.165 417.741C349.239 417.938 349.311 418.126 349.359 418.253C349.413 418.398 349.446 418.483 349.476 418.563C349.533 418.715 349.532 418.716 349.509 418.648C349.321 418.104 348.899 416.682 348.794 414.896C348.698 413.242 348.936 412.362 348.877 412.607L407.188 426.743C408.428 421.626 408.992 416.521 408.692 411.393C408.384 406.134 407.231 401.989 406.231 399.089C406.004 398.432 405.795 397.867 405.646 397.47C405.573 397.276 405.503 397.09 405.456 396.968C405.403 396.827 405.374 396.752 405.35 396.688C405.221 396.342 405.494 397.023 405.769 398.069C406.082 399.262 406.458 401.118 406.513 403.434C406.57 405.805 406.277 408.089 405.719 410.18L347.745 394.72ZM348.654 413.597C346.471 424.152 330.403 492.699 326.923 508.939L385.591 521.511C387.961 510.451 405.694 434.048 407.41 425.753L348.654 413.597ZM327.086 508.224C323.274 524.104 330.006 537.901 334.375 545.104C339.49 553.536 346.43 561.194 353.368 567.464C360.404 573.822 368.519 579.729 376.825 584.216C384.355 588.283 395.332 593 407.282 593V533C409.116 533 409.803 533.352 409.013 533.094C408.349 532.878 407.106 532.379 405.341 531.425C401.765 529.493 397.53 526.503 393.597 522.948C389.566 519.306 386.918 516.036 385.675 513.986C385.072 512.991 385.236 512.997 385.504 513.969C385.765 514.914 386.447 517.984 385.429 522.226L327.086 508.224ZM407.282 593C421.643 593 432.401 585.6 438.748 579.94C445.471 573.944 451.097 566.481 455.714 559.34C465.028 544.932 473.495 526.658 480.562 509.327L425.003 486.673C418.42 502.817 411.612 517.043 405.326 526.766C402.142 531.691 399.888 534.202 398.81 535.163C397.357 536.459 400.396 533 407.282 533V593ZM447.447 527.522C469.197 531.453 489.591 525.629 503.999 518.052C511.316 514.204 518.25 509.311 523.814 503.623C526.593 500.783 529.548 497.217 531.961 492.939C534.238 488.902 537.057 482.413 537.057 474.275H477.057C477.057 468.493 479.023 464.665 479.702 463.461C480.516 462.017 481.128 461.457 480.926 461.664C480.529 462.07 478.951 463.433 476.072 464.948C470.086 468.096 463.342 469.422 458.117 468.478L447.447 527.522ZM537.057 474.275C537.057 463.658 532.181 455.403 528.678 450.934C525.849 447.325 516.561 436.8 500.882 436.8V496.8C493.909 496.8 488.956 494.178 486.563 492.6C484.018 490.921 482.402 489.156 481.455 487.947C480.463 486.681 479.562 485.207 478.826 483.447C478.183 481.908 477.057 478.71 477.057 474.275H537.057ZM648.877 476.225L623.689 459.927L623.48 460.252L623.278 460.581L648.877 476.225ZM607.927 520.75L636.939 528.385L637.125 527.676L637.277 526.959L607.927 520.75ZM630.677 421.625L659.411 430.245L659.767 429.06L660.024 427.85L630.677 421.625ZM639.452 406.675L610.991 397.188L610.4 398.96L610.034 400.792L639.452 406.675ZM635.877 399.2L622.46 426.033L622.46 426.033L635.877 399.2ZM592.977 411.225L619.809 424.641L621.337 421.585L622.139 418.264L592.977 411.225ZM592.002 415.775L564.903 428.647L607.62 518.577L621.7 420.018L592.002 415.775ZM488.977 500.275L459.745 493.529L459.736 493.567L459.728 493.604L488.977 500.275ZM567.302 521.725H597.302V411.556L541.444 506.514L567.302 521.725ZM567.302 522.7L588.515 543.913L597.302 535.126V522.7H567.302ZM566.977 523.35L596.292 529.723L596.977 526.573V523.35H566.977ZM654.402 437.125C648.134 437.125 638.666 438.928 630.933 446.951C625.034 453.071 623.159 460.154 622.966 460.781C621.951 464.078 622.675 461.496 623.689 459.927L674.064 492.523C678.653 485.429 680.352 478.297 680.312 478.426C680.311 478.431 679.962 479.615 679.241 481.169C678.48 482.809 676.947 485.67 674.133 488.589C671.109 491.726 667.402 494.107 663.352 495.55C659.583 496.892 656.36 497.125 654.402 497.125V437.125ZM623.278 460.581C617.931 469.332 609.897 482.291 602.468 492.926C598.683 498.343 595.586 502.388 593.426 504.814C592.285 506.096 592.11 506.122 592.792 505.588C593.147 505.309 594.344 504.394 596.281 503.448C598.022 502.598 602.163 500.825 607.927 500.825V560.825C619.767 560.825 627.956 554.26 629.806 552.81C633.16 550.181 636.045 547.175 638.24 544.71C642.753 539.64 647.436 533.326 651.654 527.287C660.231 515.009 669.097 500.668 674.475 491.869L623.278 460.581ZM607.927 500.825C612.925 500.825 618.765 502.162 624.169 505.838C629.388 509.386 632.379 513.871 634 517.302C636.807 523.243 636.591 528.242 636.578 528.801C636.531 530.806 636.204 531.177 636.939 528.385L578.914 513.115C578.024 516.498 576.722 521.906 576.594 527.406C576.54 529.711 576.507 536.071 579.751 542.936C581.591 546.829 584.863 551.667 590.431 555.453C596.185 559.366 602.441 560.825 607.927 560.825V500.825ZM637.277 526.959C638.998 518.824 644.373 495.149 649.514 472.791C652.068 461.682 654.537 451.015 656.426 442.936C658.522 433.968 659.519 429.888 659.411 430.245L601.942 413.005C600.532 417.703 582.067 498.038 578.576 514.541L637.277 526.959ZM660.024 427.85C660.058 427.69 659.87 428.636 659.045 430.108C658.165 431.681 657.161 432.773 656.765 433.169C656.713 433.221 656.713 433.22 656.826 433.112C656.885 433.057 656.951 432.995 657.059 432.893C657.153 432.805 657.298 432.669 657.445 432.53C657.963 432.041 659.244 430.832 660.602 429.273C662.057 427.605 663.819 425.302 665.398 422.32C667.01 419.277 668.18 416.005 668.869 412.558L610.034 400.792C610.48 398.564 611.263 396.337 612.378 394.234C613.46 392.192 614.612 390.721 615.376 389.845C616.044 389.079 616.553 388.621 616.248 388.909C616.212 388.943 615.189 389.893 614.338 390.743C612.154 392.927 609.282 396.172 606.695 400.792C604.164 405.311 602.433 410.197 601.33 415.4L660.024 427.85ZM667.912 416.162C672.362 402.812 668.997 382.219 649.293 372.367L622.46 426.033C617.589 423.597 613.229 419.011 611.081 412.922C609.226 407.667 609.325 402.186 610.991 397.188L667.912 416.162ZM649.293 372.367C640.338 367.89 630.409 367.25 624.177 367.25V427.25C624.736 427.25 625.189 427.269 625.529 427.294C625.697 427.306 625.826 427.318 625.917 427.329C626.008 427.339 626.05 427.346 626.046 427.345C626.042 427.345 625.976 427.334 625.852 427.307C625.73 427.28 625.528 427.232 625.257 427.153C624.765 427.01 623.764 426.685 622.46 426.033L649.293 372.367ZM624.177 367.25C614.786 367.25 603.757 368.857 593.766 372.757C585.556 375.963 568.561 384.522 563.814 404.186L622.139 418.264C620.856 423.582 617.932 426.659 616.567 427.831C615.297 428.921 614.696 428.997 615.587 428.649C616.346 428.353 617.632 427.971 619.352 427.675C621.044 427.385 622.737 427.25 624.177 427.25V367.25ZM566.144 397.809C564.081 401.934 563.299 405.92 563.133 406.71C562.778 408.395 562.509 410.093 562.303 411.532L621.7 420.018C621.819 419.182 621.875 418.93 621.846 419.071C621.83 419.144 621.736 419.592 621.539 420.27C621.436 420.622 621.271 421.158 621.03 421.818C620.8 422.446 620.408 423.444 619.809 424.641L566.144 397.809ZM619.1 402.903C608.802 381.223 587.884 363.35 557.227 363.35V423.35C560.08 423.35 561.222 424.036 561.718 424.378C562.417 424.861 563.655 426.018 564.903 428.647L619.1 402.903ZM557.227 363.35C539.241 363.35 524.701 371.724 514.147 381.229C503.681 390.654 495.285 402.759 488.587 414.819C475.153 439.01 465.487 468.647 459.745 493.529L518.208 507.021C523.191 485.428 531.238 461.602 541.041 443.949C545.962 435.088 550.566 429.175 554.299 425.814C557.943 422.532 558.8 423.35 557.227 423.35V363.35ZM459.728 493.604C452.833 523.833 464.431 549.037 478.75 565.333C485.859 573.424 494.07 579.908 502.217 584.518C509.618 588.707 519.885 593 530.902 593V533C533.177 533 534.277 533.441 533.906 533.319C533.7 533.251 532.95 532.969 531.768 532.3C529.362 530.939 526.423 528.689 523.822 525.729C518.722 519.925 516.67 513.767 518.225 506.946L459.728 493.604ZM530.902 593C543.136 593 552.29 586.845 556.662 583.508C561.887 579.52 566.537 574.628 570.442 570.001C578.353 560.629 586.234 548.71 593.16 536.936L541.444 506.514C535.369 516.84 529.438 525.558 524.592 531.299C522.12 534.229 520.655 535.511 520.263 535.81C520.107 535.929 520.757 535.396 522.173 534.761C523.547 534.144 526.605 533 530.902 533V593ZM537.302 521.725V522.7H597.302V521.725H537.302ZM546.088 501.487C546.079 501.496 545.927 501.648 545.768 501.81C545.61 501.971 545.248 502.342 544.815 502.824C544.06 503.663 541.971 506.036 540.184 509.609C538.141 513.694 537.4 517.473 537.131 520.172C537.016 521.318 536.991 522.23 536.983 522.642C536.979 522.872 536.977 523.058 536.977 523.16C536.977 523.257 536.977 523.345 536.977 523.35H596.977C596.977 522.713 597.01 524.368 596.833 526.142C596.573 528.739 595.852 532.437 593.85 536.441C592.104 539.933 590.076 542.225 589.412 542.962C588.806 543.635 588.206 544.222 588.515 543.913L546.088 501.487ZM537.661 516.977C535.142 528.567 537.695 539.238 540.639 546.772C543.725 554.669 548.299 561.882 553.298 567.918C558.303 573.961 564.488 579.732 571.516 584.209C578.17 588.448 587.915 593 599.477 593V533C601.691 533 603.143 533.444 603.653 533.625C604.183 533.812 604.203 533.891 603.753 533.605C603.328 533.334 602.679 532.86 601.885 532.142C601.1 531.432 600.285 530.586 599.505 529.645C598.726 528.703 598.059 527.761 597.528 526.888C596.991 526.004 596.679 525.331 596.523 524.932C596.358 524.509 596.462 524.636 596.552 525.297C596.641 525.951 596.768 527.531 596.292 529.723L537.661 516.977ZM599.477 593C611.504 593 620.708 587.003 624.965 583.94C630.238 580.146 635.102 575.453 639.287 570.956C647.758 561.855 656.406 550.329 663.942 539.293C671.568 528.125 678.645 516.59 683.927 507.013C686.546 502.264 688.93 497.622 690.753 493.531C691.653 491.512 692.605 489.205 693.389 486.835C693.902 485.284 695.452 480.588 695.452 474.925H635.452C635.452 472.217 635.859 470.238 636.013 469.535C636.205 468.661 636.386 468.109 636.425 467.993C636.495 467.779 636.397 468.101 635.947 469.113C635.069 471.083 633.556 474.104 631.386 478.039C627.09 485.829 621.025 495.744 614.393 505.457C607.669 515.303 600.941 524.089 595.366 530.08C592.527 533.129 590.701 534.677 589.922 535.237C588.127 536.529 591.918 533 599.477 533V593ZM695.452 474.925C695.452 457.658 683.874 447.63 677.276 443.598C670.344 439.362 662.163 437.125 654.402 437.125V497.125C651.19 497.125 648.535 496.351 645.989 494.795C643.779 493.445 635.452 487.317 635.452 474.925H695.452ZM536.752 500.825C542.707 500.825 548.778 503.05 553.463 507.276C557.53 510.945 559.068 514.763 559.551 516.165C560.372 518.544 559.813 518.717 560.02 514.619C560.387 507.37 562.618 495.778 566.536 482.756C570.402 469.906 575.266 457.802 579.796 449.525C582.128 445.263 583.707 443.249 584.193 442.728C585.786 441.02 581.038 447.4 570.552 447.4V387.4C554.865 387.4 544.491 397.325 540.302 401.819C535.006 407.501 530.649 414.349 527.162 420.72C520.053 433.71 513.745 449.963 509.08 465.469C504.467 480.803 500.807 497.567 500.097 511.586C499.766 518.121 499.872 527.156 502.833 535.737C504.387 540.241 507.364 546.496 513.273 551.827C519.799 557.714 528.115 560.825 536.752 560.825V500.825ZM570.552 447.4C554.4 447.4 548.377 434.357 547.641 432.276C546.92 430.239 547.438 430.346 547.344 434.435C547.176 441.744 545.316 453.332 541.788 466.156C538.283 478.901 533.743 490.632 529.361 498.488C528.315 500.365 527.387 501.819 526.617 502.894C526.239 503.424 525.928 503.819 525.693 504.099C525.577 504.237 525.487 504.339 525.422 504.409C525.39 504.444 525.366 504.469 525.349 504.487C525.332 504.504 525.324 504.512 525.324 504.512C525.325 504.511 525.334 504.502 525.354 504.484C525.373 504.466 525.403 504.438 525.444 504.403C525.525 504.333 525.655 504.224 525.836 504.087C526.188 503.821 526.802 503.396 527.686 502.937C529.476 502.005 532.605 500.825 536.752 500.825V560.825C551.297 560.825 561.686 552.879 567.293 547.391C573.321 541.49 578.072 534.329 581.761 527.716C589.241 514.306 595.346 497.68 599.64 482.069C603.912 466.537 607.008 449.769 607.328 435.81C607.478 429.265 607.122 420.511 604.208 412.271C601.278 403.988 591.741 387.4 570.552 387.4V447.4Z" fill="#1D1A1A"/>
</g>
<g filter="url(#filter2_d_221_38)">
<path d="M239.925 473.625C239.925 469.075 234.725 465.175 231.15 465.175C228.875 465.175 229.85 468.1 225.95 472.65C211.65 489.875 181.1 530.825 153.15 530.825C110.575 530.825 167.45 417.725 183.375 417.725C196.375 417.725 182.725 460.625 171.675 470.05C168.75 472.65 164.85 471.025 164.85 473.625C164.85 478.175 169.725 482.725 175.9 482.725C194.75 482.725 213.925 440.8 213.925 422.925C213.925 410.575 179.475 393.35 161.6 393.35C134.95 393.35 106.025 472.65 98.55 505.8C94.65 523.025 123.575 563 143.075 563C175.575 563 239.925 485.975 239.925 473.625ZM384.679 467.45C382.08 467.45 380.129 469.4 380.129 472C380.129 486.95 334.629 488.575 334.629 488.575C341.454 459 340.479 439.175 332.029 416.75C328.454 407.325 300.829 393.35 281.004 393.35C260.529 393.35 238.429 436.9 249.479 471.025C242.979 468.75 235.504 466.15 230.954 466.15C228.354 466.15 226.729 466.8 226.404 468.425C221.854 480.45 220.229 485.975 216.004 502.875C209.179 530.5 229.329 563 257.929 563C303.104 563 326.829 511 326.829 511C361.93 505.475 393.454 489.875 393.454 476.225C393.454 471.35 389.88 467.45 384.679 467.45ZM303.104 484.35C303.104 484.35 270.279 472.65 278.404 439.825C280.679 430.075 289.454 416.75 298.554 416.75C314.154 416.75 312.529 452.5 303.104 484.35ZM267.029 530.175C251.104 530.175 255.654 505.15 259.879 489.225C267.354 497.675 278.729 504.5 294.004 508.075C294.004 508.075 281.329 530.175 267.029 530.175ZM500.882 466.8C498.932 466.8 498.932 468.75 496.982 470.375C494.382 472.975 480.407 478.825 470.007 478.825C466.432 478.825 463.507 478.5 461.232 476.875C472.282 446.325 480.082 419.025 480.082 419.025C489.182 388.475 480.407 381.65 470.007 381.65C435.232 381.65 414.757 456.075 433.282 485.65C422.557 510.35 411.182 530.825 403.382 530.825C390.382 530.825 415.082 433.325 416.382 426.825C419.632 413.825 393.957 397.25 383.232 397.25C378.682 397.25 377.057 400.5 376.732 402.45C375.432 407.325 380.632 408.95 378.032 419.675C376.082 429.1 359.182 501.575 356.257 515.225C352.357 531.475 389.082 563 407.282 563C422.232 563 439.132 531.475 452.782 498C479.757 502.875 507.057 483.7 507.057 474.275C507.057 471.35 503.807 466.8 500.882 466.8ZM654.402 467.125C650.827 467.125 652.452 470.7 648.877 476.225C638.152 493.775 615.077 530.825 607.927 530.825C605.977 530.825 606.302 526.925 607.927 520.75C611.502 503.85 629.702 424.875 630.677 421.625C632.952 410.9 638.477 411.55 639.452 406.675C640.102 404.725 639.777 401.15 635.877 399.2C633.277 397.9 629.052 397.25 624.177 397.25C611.502 397.25 595.252 401.8 592.977 411.225C592.652 411.875 592.327 413.5 592.002 415.775C585.827 402.775 574.452 393.35 557.227 393.35C524.402 393.35 499.702 453.8 488.977 500.275C480.527 537.325 516.277 563 530.902 563C539.677 563 554.302 543.825 567.302 521.725V522.7C566.977 523.025 566.977 523.025 566.977 523.35C563.727 538.3 584.527 563 599.477 563C617.352 563 665.452 484.025 665.452 474.925C665.452 470.05 658.952 467.125 654.402 467.125ZM536.752 530.825C515.302 530.825 549.752 417.4 570.552 417.4C590.702 417.4 562.102 530.825 536.752 530.825Z" fill="white"/>
</g>
<g filter="url(#filter3_d_221_38)">
<path d="M292.85 284.8C290.9 284.8 290.9 286.75 288.95 288.375C286.35 290.975 272.375 296.825 261.975 296.825C258.4 296.825 255.475 296.5 253.2 294.875C264.25 264.325 272.05 237.025 272.05 237.025C281.15 206.475 272.375 199.65 261.975 199.65C227.2 199.65 206.725 274.075 225.25 303.65C214.525 328.35 203.15 348.825 195.35 348.825C182.35 348.825 207.05 251.325 208.35 244.825C211.6 231.825 185.925 215.25 175.2 215.25C170.65 215.25 169.025 218.5 168.7 220.45C167.4 225.325 172.6 226.95 170 237.675C168.05 247.1 151.15 319.575 148.225 333.225C144.325 349.475 181.05 381 199.25 381C214.2 381 231.1 349.475 244.75 316C271.725 320.875 299.025 301.7 299.025 292.275C299.025 289.35 295.775 284.8 292.85 284.8ZM324.169 196.725H338.794C343.344 196.725 347.569 193.8 348.869 189.575L358.944 159.35C360.894 153.175 356.994 147.325 350.494 147.325H326.444C320.919 147.325 316.044 152.2 315.719 157.725L315.069 187.625C315.069 192.825 318.969 196.725 324.169 196.725ZM363.819 285.125C359.919 285.125 361.869 288.7 358.294 294.225C347.569 311.775 324.169 348.825 317.344 348.825C315.069 348.825 315.719 344.925 317.019 338.75C320.269 324.45 338.794 245.15 338.794 244.825C341.719 231.825 316.369 215.25 305.644 215.25C300.769 215.25 299.144 218.5 298.819 220.45C297.844 225.325 302.719 226.95 300.444 237.675L298.494 246.125C298.494 246.125 279.319 329 276.394 341.35C273.144 356.3 293.944 381 308.894 381C326.769 381 374.544 302.025 374.544 292.925C374.544 288.05 368.369 285.125 363.819 285.125ZM433.628 285.125C429.728 285.125 431.678 288.7 428.103 294.225C417.378 311.775 393.978 348.825 387.153 348.825C384.878 348.825 385.528 344.925 386.828 338.75C390.078 324.775 420.953 191.2 420.953 190.875C424.203 177.875 398.528 160.975 387.803 160.975C383.253 160.975 381.628 164.225 381.303 166.5C380.003 171.05 385.203 173 382.603 183.725C381.953 186.325 349.453 328.025 346.203 341.35C342.953 356.3 363.753 381 378.703 381C396.578 381 444.353 302.025 444.353 292.925C444.353 288.05 438.178 285.125 433.628 285.125ZM504.722 285.125C500.822 285.125 502.772 288.7 499.197 294.225C488.472 311.775 465.072 348.825 458.247 348.825C455.972 348.825 456.622 344.925 457.922 338.75C461.172 324.775 492.047 191.2 492.047 190.875C495.297 177.875 469.622 160.975 458.897 160.975C454.347 160.975 452.722 164.225 452.397 166.5C451.097 171.05 456.297 173 453.697 183.725C453.047 186.325 420.547 328.025 417.297 341.35C414.047 356.3 434.847 381 449.797 381C467.672 381 515.447 302.025 515.447 292.925C515.447 288.05 509.272 285.125 504.722 285.125ZM623.591 283.175C621.316 283.175 622.291 286.1 618.391 290.65C604.091 307.875 573.541 348.825 545.591 348.825C527.391 348.825 527.391 328.025 534.541 304.3C542.016 306.575 552.416 307.55 556.316 307.55C574.841 307.55 606.366 258.8 606.366 240.925C606.366 228.575 571.916 211.35 554.041 211.35C527.391 211.35 498.466 290.65 490.991 323.8C487.091 341.025 516.016 381 535.516 381C568.016 381 632.366 303.975 632.366 291.625C632.366 287.075 627.166 283.175 623.591 283.175ZM575.816 235.725C588.816 235.725 561.516 293.25 544.291 293.25C528.691 293.25 567.366 235.725 575.816 235.725Z" fill="white"/>
</g>
<defs>
<filter id="filter0_d_221_38" x="138.325" y="147.325" width="500.041" height="245.675" filterUnits="userSpaceOnUse" color-interpolation-filters="sRGB">
<feFlood flood-opacity="0" result="BackgroundImageFix"/>
<feColorMatrix in="SourceAlpha" type="matrix" values="0 0 0 0 0 0 0 0 0 0 0 0 0 0 0 0 0 0 127 0" result="hardAlpha"/>
<feOffset dy="6"/>
<feGaussianBlur stdDeviation="3"/>
<feComposite in2="hardAlpha" operator="out"/>
<feColorMatrix type="matrix" values="0 0 0 0 0 0 0 0 0 0 0 0 0 0 0 0 0 0 0.25 0"/>
<feBlend mode="normal" in2="BackgroundImageFix" result="effect1_dropShadow_221_38"/>
<feBlend mode="normal" in="SourceGraphic" in2="effect1_dropShadow_221_38" result="shape"/>
</filter>
<filter id="filter1_d_221_38" x="88.6499" y="381.65" width="582.802" height="193.35" filterUnits="userSpaceOnUse" color-interpolation-filters="sRGB">
<feFlood flood-opacity="0" result="BackgroundImageFix"/>
<feColorMatrix in="SourceAlpha" type="matrix" values="0 0 0 0 0 0 0 0 0 0 0 0 0 0 0 0 0 0 127 0" result="hardAlpha"/>
<feOffset dy="6"/>
<feGaussianBlur stdDeviation="3"/>
<feComposite in2="hardAlpha" operator="out"/>
<feColorMatrix type="matrix" values="0 0 0 0 0 0 0 0 0 0 0 0 0 0 0 0 0 0 0.25 0"/>
<feBlend mode="normal" in2="BackgroundImageFix" result="effect1_dropShadow_221_38"/>
<feBlend mode="normal" in="SourceGraphic" in2="effect1_dropShadow_221_38" result="shape"/>
</filter>
<filter id="filter2_d_221_38" x="88.6499" y="381.65" width="582.802" height="193.35" filterUnits="userSpaceOnUse" color-interpolation-filters="sRGB">
<feFlood flood-opacity="0" result="BackgroundImageFix"/>
<feColorMatrix in="SourceAlpha" type="matrix" values="0 0 0 0 0 0 0 0 0 0 0 0 0 0 0 0 0 0 127 0" result="hardAlpha"/>
<feOffset dy="6"/>
<feGaussianBlur stdDeviation="3"/>
<feComposite in2="hardAlpha" operator="out"/>
<feColorMatrix type="matrix" values="0 0 0 0 0 0 0 0 0 0 0 0 0 0 0 0 0 0 0.25 0"/>
<feBlend mode="normal" in2="BackgroundImageFix" result="effect1_dropShadow_221_38"/>
<feBlend mode="normal" in="SourceGraphic" in2="effect1_dropShadow_221_38" result="shape"/>
</filter>
<filter id="filter3_d_221_38" x="138.325" y="147.325" width="500.041" height="245.675" filterUnits="userSpaceOnUse" color-interpolation-filters="sRGB">
<feFlood flood-opacity="0" result="BackgroundImageFix"/>
<feColorMatrix in="SourceAlpha" type="matrix" values="0 0 0 0 0 0 0 0 0 0 0 0 0 0 0 0 0 0 127 0" result="hardAlpha"/>
<feOffset dy="6"/>
<feGaussianBlur stdDeviation="3"/>
<feComposite in2="hardAlpha" operator="out"/>
<feColorMatrix type="matrix" values="0 0 0 0 0 0 0 0 0 0 0 0 0 0 0 0 0 0 0.25 0"/>
<feBlend mode="normal" in2="BackgroundImageFix" result="effect1_dropShadow_221_38"/>
<feBlend mode="normal" in="SourceGraphic" in2="effect1_dropShadow_221_38" result="shape"/>
</filter>
</defs>
</svg>
