<svg width="1043" height="246" viewBox="0 0 1043 246" fill="none" xmlns="http://www.w3.org/2000/svg">
<g filter="url(#filter0_d_203_3)">
<path d="M154.85 137.8C152.9 137.8 152.9 139.75 150.95 141.375C148.35 143.975 134.375 149.825 123.975 149.825C120.4 149.825 117.475 149.5 115.2 147.875C126.25 117.325 134.05 90.025 134.05 90.025C143.15 59.475 134.375 52.65 123.975 52.65C89.2 52.65 68.725 127.075 87.25 156.65C76.525 181.35 65.15 201.825 57.35 201.825C44.35 201.825 69.05 104.325 70.35 97.825C73.6 84.825 47.925 68.25 37.2 68.25C32.65 68.25 31.025 71.5 30.7 73.45C29.4 78.325 34.6 79.95 32 90.675C30.05 100.1 13.15 172.575 10.225 186.225C6.325 202.475 43.05 234 61.25 234C76.2 234 93.1 202.475 106.75 169C133.725 173.875 161.025 154.7 161.025 145.275C161.025 142.35 157.775 137.8 154.85 137.8ZM186.169 49.725H200.794C205.344 49.725 209.569 46.8 210.869 42.575L220.944 12.35C222.894 6.17499 218.994 0.324987 212.494 0.324987H188.444C182.919 0.324987 178.044 5.19998 177.719 10.725L177.069 40.625C177.069 45.825 180.969 49.725 186.169 49.725ZM225.819 138.125C221.919 138.125 223.869 141.7 220.294 147.225C209.569 164.775 186.169 201.825 179.344 201.825C177.069 201.825 177.719 197.925 179.019 191.75C182.269 177.45 200.794 98.15 200.794 97.825C203.719 84.825 178.369 68.25 167.644 68.25C162.769 68.25 161.144 71.5 160.819 73.45C159.844 78.325 164.719 79.95 162.444 90.675L160.494 99.125C160.494 99.125 141.319 182 138.394 194.35C135.144 209.3 155.944 234 170.894 234C188.769 234 236.544 155.025 236.544 145.925C236.544 141.05 230.369 138.125 225.819 138.125ZM295.628 138.125C291.728 138.125 293.678 141.7 290.103 147.225C279.378 164.775 255.978 201.825 249.153 201.825C246.878 201.825 247.528 197.925 248.828 191.75C252.078 177.775 282.953 44.2 282.953 43.875C286.203 30.875 260.528 13.975 249.803 13.975C245.253 13.975 243.628 17.225 243.303 19.5C242.003 24.05 247.203 26 244.603 36.725C243.953 39.325 211.453 181.025 208.203 194.35C204.953 209.3 225.753 234 240.703 234C258.578 234 306.353 155.025 306.353 145.925C306.353 141.05 300.178 138.125 295.628 138.125ZM366.722 138.125C362.822 138.125 364.772 141.7 361.197 147.225C350.472 164.775 327.072 201.825 320.247 201.825C317.972 201.825 318.622 197.925 319.922 191.75C323.172 177.775 354.047 44.2 354.047 43.875C357.297 30.875 331.622 13.975 320.897 13.975C316.347 13.975 314.722 17.225 314.397 19.5C313.097 24.05 318.297 26 315.697 36.725C315.047 39.325 282.547 181.025 279.297 194.35C276.047 209.3 296.847 234 311.797 234C329.672 234 377.447 155.025 377.447 145.925C377.447 141.05 371.272 138.125 366.722 138.125ZM485.591 136.175C483.316 136.175 484.291 139.1 480.391 143.65C466.091 160.875 435.541 201.825 407.591 201.825C389.391 201.825 389.391 181.025 396.541 157.3C404.016 159.575 414.416 160.55 418.316 160.55C436.841 160.55 468.366 111.8 468.366 93.925C468.366 81.575 433.916 64.35 416.041 64.35C389.391 64.35 360.466 143.65 352.991 176.8C349.091 194.025 378.016 234 397.516 234C430.016 234 494.366 156.975 494.366 144.625C494.366 140.075 489.166 136.175 485.591 136.175ZM437.816 88.725C450.816 88.725 423.516 146.25 406.291 146.25C390.691 146.25 429.366 88.725 437.816 88.725ZM610.861 144.625C610.861 140.075 605.661 136.175 602.086 136.175C599.811 136.175 600.786 139.1 596.886 143.65C582.586 160.875 552.036 201.825 524.086 201.825C481.511 201.825 538.386 88.725 554.311 88.725C567.311 88.725 553.661 131.625 542.611 141.05C539.686 143.65 535.786 142.025 535.786 144.625C535.786 149.175 540.661 153.725 546.836 153.725C565.686 153.725 584.861 111.8 584.861 93.925C584.861 81.575 550.411 64.35 532.536 64.35C505.886 64.35 476.961 143.65 469.486 176.8C465.586 194.025 494.511 234 514.011 234C546.511 234 610.861 156.975 610.861 144.625ZM755.615 138.45C753.015 138.45 751.065 140.4 751.065 143C751.065 157.95 705.565 159.575 705.565 159.575C712.39 130 711.415 110.175 702.965 87.75C699.39 78.325 671.765 64.35 651.94 64.35C631.465 64.35 609.365 107.9 620.415 142.025C613.915 139.75 606.44 137.15 601.89 137.15C599.29 137.15 597.665 137.8 597.34 139.425C592.79 151.45 591.165 156.975 586.94 173.875C580.115 201.5 600.265 234 628.865 234C674.04 234 697.765 182 697.765 182C732.865 176.475 764.39 160.875 764.39 147.225C764.39 142.35 760.815 138.45 755.615 138.45ZM674.04 155.35C674.04 155.35 641.215 143.65 649.34 110.825C651.615 101.075 660.39 87.75 669.49 87.75C685.09 87.75 683.465 123.5 674.04 155.35ZM637.965 201.175C622.04 201.175 626.59 176.15 630.815 160.225C638.29 168.675 649.665 175.5 664.94 179.075C664.94 179.075 652.265 201.175 637.965 201.175ZM871.818 137.8C869.868 137.8 869.868 139.75 867.918 141.375C865.318 143.975 851.343 149.825 840.943 149.825C837.368 149.825 834.443 149.5 832.168 147.875C843.218 117.325 851.018 90.025 851.018 90.025C860.118 59.475 851.343 52.65 840.943 52.65C806.168 52.65 785.693 127.075 804.218 156.65C793.493 181.35 782.118 201.825 774.318 201.825C761.318 201.825 786.018 104.325 787.318 97.825C790.568 84.825 764.893 68.25 754.168 68.25C749.618 68.25 747.993 71.5 747.668 73.45C746.368 78.325 751.568 79.95 748.968 90.675C747.018 100.1 730.118 172.575 727.193 186.225C723.293 202.475 760.018 234 778.218 234C793.168 234 810.068 202.475 823.718 169C850.693 173.875 877.993 154.7 877.993 145.275C877.993 142.35 874.743 137.8 871.818 137.8ZM1025.34 138.125C1021.76 138.125 1023.39 141.7 1019.81 147.225C1009.09 164.775 986.012 201.825 978.862 201.825C976.912 201.825 977.237 197.925 978.862 191.75C982.437 174.85 1000.64 95.875 1001.61 92.625C1003.89 81.9 1009.41 82.55 1010.39 77.675C1011.04 75.725 1010.71 72.15 1006.81 70.2C1004.21 68.9 999.987 68.25 995.112 68.25C982.437 68.25 966.187 72.8 963.912 82.225C963.587 82.875 963.262 84.5 962.937 86.775C956.762 73.775 945.387 64.35 928.162 64.35C895.337 64.35 870.637 124.8 859.912 171.275C851.462 208.325 887.212 234 901.837 234C910.612 234 925.237 214.825 938.237 192.725V193.7C937.912 194.025 937.912 194.025 937.912 194.35C934.662 209.3 955.462 234 970.412 234C988.287 234 1036.39 155.025 1036.39 145.925C1036.39 141.05 1029.89 138.125 1025.34 138.125ZM907.687 201.825C886.237 201.825 920.687 88.4 941.487 88.4C961.637 88.4 933.037 201.825 907.687 201.825Z" fill="white"/>
</g>
<defs>
<filter id="filter0_d_203_3" x="0.324951" y="0.324951" width="1042.06" height="245.675" filterUnits="userSpaceOnUse" color-interpolation-filters="sRGB">
<feFlood flood-opacity="0" result="BackgroundImageFix"/>
<feColorMatrix in="SourceAlpha" type="matrix" values="0 0 0 0 0 0 0 0 0 0 0 0 0 0 0 0 0 0 127 0" result="hardAlpha"/>
<feOffset dy="6"/>
<feGaussianBlur stdDeviation="3"/>
<feComposite in2="hardAlpha" operator="out"/>
<feColorMatrix type="matrix" values="0 0 0 0 0 0 0 0 0 0 0 0 0 0 0 0 0 0 0.25 0"/>
<feBlend mode="normal" in2="BackgroundImageFix" result="effect1_dropShadow_203_3"/>
<feBlend mode="normal" in="SourceGraphic" in2="effect1_dropShadow_203_3" result="shape"/>
</filter>
</defs>
</svg>
